<svg width="42" height="27" viewBox="0 0 42 27" fill="none" xmlns="http://www.w3.org/2000/svg">
<path d="M41.5999 6.89992V20.7999C41.5999 21.7999 40.4999 22.4999 39.5999 21.9999L33.5999 18.4999L32.6999 17.9999L27.5999 14.9999C27.0999 14.6999 26.8999 14.2999 26.8999 13.7999C26.8999 13.2999 27.0999 12.8999 27.5999 12.5999L32.7999 9.59992L33.6999 9.09992L39.6999 5.59992C40.4999 5.19992 41.5999 5.79992 41.5999 6.89992Z" fill="#04B057"/>
<path d="M32.9 11.5999V15.7999C32.9 16.4999 32.8 17.1999 32.7 17.8999C31.7 23.0999 27.1 26.9999 21.6 26.9999H0V11.5999C0 5.3999 5 0.399902 11.2 0.399902H21.6C27.1 0.399902 31.8 4.3999 32.7 9.6999C32.8 10.2999 32.9 10.9999 32.9 11.5999Z" fill="#05D268"/>
</svg>
