<svg width="120" height="24" viewBox="0 0 120 24" fill="none" xmlns="http://www.w3.org/2000/svg">
<path d="M35.7853 5.93519V17.8922C35.7853 18.7524 34.8391 19.3545 34.0649 18.9244L28.9036 15.9137L28.1294 15.4836L23.7423 12.9029C23.3122 12.6449 23.1401 12.3008 23.1401 11.8707C23.1401 11.4406 23.3122 11.0965 23.7423 10.8384L28.2154 8.25778L28.9896 7.82767L34.1509 4.81691C34.8391 4.47283 35.7853 4.98896 35.7853 5.93519Z" fill="#81868A"/>
<path d="M28.3011 9.97865V13.5916C28.3011 14.1937 28.2151 14.7959 28.129 15.398C27.2688 19.8711 23.3118 23.226 18.5806 23.226H0V9.97865C0 4.64531 4.30108 0.344238 9.63441 0.344238H18.5806C23.3118 0.344238 27.3548 3.7851 28.129 8.34424C28.2151 8.86037 28.3011 9.46252 28.3011 9.97865Z" fill="#81868A"/>
<path d="M50.3224 8.9464C50.3224 9.37651 50.5805 9.72059 51.0106 9.89264C51.4407 10.1507 52.0429 10.3227 52.645 10.5808C53.2472 10.7529 53.9353 11.0109 54.6235 11.183C55.3117 11.355 55.8278 11.7851 56.344 12.3873C56.7741 12.9894 57.0321 13.6776 57.0321 14.5378C57.0321 15.7421 56.602 16.6883 55.6558 17.3765C54.7095 18.0647 53.5913 18.4088 52.2149 18.4088C51.0106 18.4088 49.8923 18.1507 49.0321 17.6346C48.1719 17.1184 47.4837 16.4303 47.1396 15.484L49.4622 14.1077C49.8923 15.312 50.8386 15.9141 52.2149 15.9141C53.5913 15.9141 54.3655 15.484 54.3655 14.5378C54.3655 14.1077 54.1074 13.8496 53.6773 13.5916C53.2472 13.3335 52.645 13.1615 52.0429 12.9034C51.4407 12.7313 50.7526 12.4733 50.0644 12.3012C49.3762 12.1292 48.8601 11.6991 48.344 11.183C47.9138 10.6668 47.6558 9.97866 47.6558 9.11844C47.6558 8.00016 48.0859 7.05393 48.9461 6.36575C49.8063 5.67758 50.9246 5.3335 52.2149 5.3335C53.2472 5.3335 54.1934 5.59156 54.9676 6.02167C55.7418 6.45178 56.43 7.13995 56.8601 7.91414L54.6235 9.20446C54.1934 8.25823 53.4192 7.82812 52.3009 7.82812C51.7848 7.82812 51.3547 7.91414 51.0106 8.17221C50.4945 8.25823 50.3224 8.51629 50.3224 8.9464Z" fill="#81868A"/>
<path d="M65.8062 5.24778C67.2686 5.24778 68.3868 5.67789 69.247 6.62413C70.1073 7.57036 70.5374 8.77467 70.5374 10.4091V18.065H67.8707V10.6671C67.8707 9.7209 67.6126 9.03273 67.0965 8.5166C66.6664 8.00047 65.9782 7.74241 65.118 7.74241C64.1718 7.74241 63.3976 8.00047 62.7954 8.60262C62.1933 9.20477 61.9352 10.065 61.9352 11.2693V17.979H59.2686V0.516602H61.9352V7.05424C62.7954 5.84993 64.0858 5.24778 65.8062 5.24778Z" fill="#81868A"/>
<path d="M81.8067 5.50537H84.4734V17.9785H81.8067V16.4301C81.0325 17.7204 79.7422 18.3226 77.9358 18.3226C76.4734 18.3226 75.3551 17.8925 74.4949 16.9462C73.6347 16 73.2046 14.7957 73.2046 13.1613V5.50537H75.8713V12.9032C75.8713 13.8495 76.1293 14.5376 76.6455 15.0538C77.1616 15.5699 77.8498 15.828 78.71 15.828C79.6562 15.828 80.4304 15.5699 81.0325 14.9677C81.6347 14.3656 81.8928 13.5054 81.8928 12.3011C81.8067 12.215 81.8067 5.50537 81.8067 5.50537Z" fill="#81868A"/>
<path d="M100.99 0C102.022 0 103.226 0.0860215 104.516 0.344086C104.688 0.344086 104.86 0.602151 104.86 0.774194V17.9785H102.194V2.4086C101.936 2.4086 101.506 2.4086 100.99 2.4086C99.011 2.4086 98.0648 3.26882 98.0648 5.07527V5.5914H100.387V8.17204H98.0648V17.9785H95.3981V8.17204H91.2691V17.9785H88.6024V8.17204H86.71V5.5914H88.6024V5.33333C88.6024 3.6129 89.1186 2.32258 90.0648 1.46237C91.011 0.602151 92.3874 0.172043 94.2798 0.258065V2.83871C92.3014 2.66667 91.3551 3.44086 91.3551 5.33333V5.5914H95.4842V5.07527C95.3981 1.72043 97.2906 0 100.99 0Z" fill="#81868A"/>
<path d="M110.107 12.903C110.279 13.8492 110.795 14.6234 111.484 15.0535C112.172 15.5697 113.032 15.8277 114.064 15.8277C115.527 15.8277 116.559 15.3116 117.247 14.2793L119.484 15.5697C118.279 17.3761 116.473 18.3223 114.064 18.3223C112.086 18.3223 110.365 17.7202 109.161 16.4299C107.871 15.2256 107.269 13.5912 107.269 11.7847C107.269 9.89223 107.871 8.34384 109.075 7.13954C110.279 5.84922 111.914 5.24707 113.806 5.24707C115.613 5.24707 117.161 5.84922 118.279 7.13954C119.484 8.42987 120 9.97825 120 11.7847V12.903H110.107ZM110.107 10.7524H117.419C117.247 9.72019 116.817 8.946 116.129 8.42987C115.441 7.91374 114.666 7.65567 113.806 7.65567C112.774 7.65567 112 7.91374 111.312 8.51589C110.709 9.03202 110.279 9.80621 110.107 10.7524Z" fill="#81868A"/>
</svg>
