<svg width="59" height="18" viewBox="0 0 59 18" fill="none" xmlns="http://www.w3.org/2000/svg">
<path d="M54.6857 0.257324H51C49.8857 0.257324 49.0286 0.600181 48.5143 1.71447L41.4857 17.743H46.4571C46.4571 17.743 47.3143 15.6002 47.4857 15.0859C48 15.0859 52.8857 15.0859 53.5714 15.0859C53.7429 15.6859 54.1714 17.6573 54.1714 17.6573H58.6286L54.6857 0.257324ZM48.8571 11.4859C49.2857 10.4573 50.7429 6.60018 50.7429 6.60018C50.7429 6.6859 51.1714 5.57161 51.3429 4.97161L51.6857 6.51447C51.6857 6.51447 52.6286 10.7145 52.8 11.5716H48.8571V11.4859Z" fill="#3362AB"/>
<path d="M41.8284 12C41.8284 15.6 38.5713 18 33.5141 18C31.3713 18 29.3141 17.5714 28.1998 17.0571L28.8855 13.1143L29.4855 13.3714C31.0284 14.0571 32.057 14.3143 33.9427 14.3143C35.3141 14.3143 36.7713 13.8 36.7713 12.6C36.7713 11.8286 36.1713 11.3143 34.2855 10.4571C32.4855 9.6 30.0855 8.22857 30.0855 5.74286C30.0855 2.31429 33.4284 0 38.1427 0C39.9427 0 41.4855 0.342857 42.4284 0.771429L41.7427 4.54286L41.3998 4.2C40.5427 3.85714 39.4284 3.51429 37.7998 3.51429C35.9998 3.6 35.1427 4.37143 35.1427 5.05714C35.1427 5.82857 36.1713 6.42857 37.7998 7.2C40.5427 8.48571 41.8284 9.94286 41.8284 12Z" fill="#3362AB"/>
<path d="M0 0.428795L0.0857143 0.0859375H7.45714C8.48571 0.0859375 9.25714 0.428795 9.51429 1.54308L11.1429 9.25737C9.51429 5.14308 5.74286 1.80022 0 0.428795Z" fill="#F9B50B"/>
<path d="M21.5144 0.257101L14.0572 17.6571H9.00007L4.71436 3.08567C7.80007 5.0571 10.3715 8.14282 11.3144 10.2857L11.8286 12.0857L16.4572 0.171387H21.5144V0.257101Z" fill="#3362AB"/>
<path d="M23.4856 0.171387H28.1999L25.1999 17.6571H20.4856L23.4856 0.171387Z" fill="#3362AB"/>
</svg>
