<svg width="18" height="12" viewBox="0 0 18 12" fill="none" xmlns="http://www.w3.org/2000/svg">
<path d="M17.0525 3.90704C17.0525 3.72243 16.9507 3.55284 16.7879 3.46593C16.625 3.37901 16.4275 3.38891 16.2741 3.49168L14.039 4.98942C13.9005 5.08225 13.8174 5.23803 13.8174 5.40479V6.91974C13.8174 7.08463 13.8987 7.23892 14.0347 7.33215L16.2698 8.86432C16.4228 8.96924 16.6214 8.98077 16.7855 8.89427C16.9497 8.80777 17.0525 8.63747 17.0525 8.45192V3.90704Z" fill="#E1E1E1" stroke="#E1E1E1" stroke-linecap="round" stroke-linejoin="round"/>
<path fill-rule="evenodd" clip-rule="evenodd" d="M0.161865 1.87714C0.161865 1.32485 0.60958 0.877136 1.16187 0.877136H9.57235C11.7815 0.877136 13.5724 2.668 13.5724 4.87714V10.4818C13.5724 11.0341 13.1246 11.4818 12.5724 11.4818H4.16186C1.95272 11.4818 0.161865 9.69098 0.161865 7.48184V1.87714ZM2.39702 8.33832C2.39702 7.98272 2.68529 7.69446 3.04088 7.69446H3.24322C3.59881 7.69446 3.88708 7.98272 3.88708 8.33832C3.88708 8.69391 3.59881 8.98217 3.24322 8.98217H3.04088C2.68529 8.98217 2.39702 8.69391 2.39702 8.33832ZM5.27599 7.69446C4.92039 7.69446 4.63213 7.98272 4.63213 8.33832C4.63213 8.69391 4.92039 8.98217 5.27599 8.98217H8.45844C8.81403 8.98217 9.10229 8.69391 9.10229 8.33832C9.10229 7.98272 8.81403 7.69446 8.45844 7.69446H5.27599Z" fill="#E1E1E1"/>
</svg>
