<svg width="19" height="24" viewBox="0 0 19 24" fill="none" xmlns="http://www.w3.org/2000/svg">
<path d="M9.40894 15.5595C11.43 15.5595 13.2332 15.7278 14.5151 16.1878C15.1525 16.4165 15.6267 16.7054 15.9381 17.0498C16.2396 17.3832 16.4089 17.7898 16.4089 18.3131C16.4089 18.8354 16.239 19.2399 15.9366 19.5712C15.6239 19.9136 15.1481 20.2003 14.5089 20.4265C13.2235 20.8815 11.4198 21.0443 9.40894 21.0443C7.38795 21.0443 5.58476 20.8758 4.30278 20.4157C3.66535 20.187 3.19121 19.898 2.87974 19.5536C2.5782 19.2202 2.40894 18.8138 2.40894 18.2908C2.40894 17.7685 2.57885 17.3639 2.88118 17.0327C3.19375 16.6902 3.66953 16.4036 4.30864 16.1773C5.59384 15.7223 7.39756 15.5595 9.40894 15.5595ZM9.40894 3.04434C11.8813 3.04434 13.8716 5.05103 13.8716 7.57118C13.8716 10.0913 11.8813 12.098 9.40894 12.098C6.93655 12.098 4.9463 10.0913 4.9463 7.57118C4.9463 5.05103 6.93655 3.04434 9.40894 3.04434Z" stroke="black"/>
</svg>
