<svg width="16" height="16" viewBox="0 0 16 16" fill="none" xmlns="http://www.w3.org/2000/svg">
<g>
<path fill-rule="evenodd" clip-rule="evenodd" d="M1 3C1 1.89543 1.89543 1 3 1H10.2108C10.476 1 10.7304 1.10536 10.9179 1.29289L14.7071 5.08211C14.8946 5.26964 15 5.524 15 5.78921V13C15 14.1046 14.1046 15 13 15H3C1.89543 15 1 14.1046 1 13V3Z" stroke="white" stroke-width="1.5" stroke-linecap="round" stroke-linejoin="round"/>
<path fill-rule="evenodd" clip-rule="evenodd" d="M10.625 1.875V4.375C10.625 4.92728 11.0727 5.375 11.625 5.375H14.125" fill="#D8D8D8" fill-opacity="0.01"/>
<path d="M10.625 1.875V4.375C10.625 4.92728 11.0727 5.375 11.625 5.375H14.125" stroke="white" stroke-width="1.5" stroke-linecap="round" stroke-linejoin="round"/>
</g>
</svg>
