<svg width="22" height="19" viewBox="0 0 22 19" fill="none" xmlns="http://www.w3.org/2000/svg">
<path d="M18.1796 7.02826L18.515 7.69908L18.515 7.69908L18.1796 7.02826ZM18.1796 10.9717L17.8441 11.6426H17.8441L18.1796 10.9717ZM16.9585 12.5784L16.2162 12.4709L16.3802 11.3389L17.353 11.9406L16.9585 12.5784ZM17.2851 12.7606L17.6205 12.0898H17.6205L17.2851 12.7606ZM17.2851 5.2394L17.6205 5.91022L17.6205 5.91022L17.2851 5.2394ZM16.9585 5.42158L17.353 6.05942L16.3802 6.66113L16.2162 5.52909L16.9585 5.42158ZM16.25 8.93681C16.25 7.8445 16.8671 6.84593 17.8441 6.35744L18.515 7.69908C18.0461 7.93349 17.75 8.41266 17.75 8.93681H16.25ZM17.8441 6.35744C18.7198 5.91963 19.75 6.55635 19.75 7.53532H18.25C18.25 7.67142 18.3932 7.75994 18.515 7.69908L17.8441 6.35744ZM19.75 7.53532V10.4647H18.25V7.53532H19.75ZM19.75 10.4647C19.75 11.4436 18.7198 12.0804 17.8441 11.6426L18.515 10.3009C18.3932 10.2401 18.25 10.3286 18.25 10.4647H19.75ZM17.8441 11.6426C16.8671 11.1541 16.25 10.1555 16.25 9.06319H17.75C17.75 9.58734 18.0461 10.0665 18.515 10.3009L17.8441 11.6426ZM16.25 9.06319V8.93681H17.75V9.06319H16.25ZM17.353 11.9406C17.4393 11.994 17.5285 12.0438 17.6205 12.0898L16.9497 13.4314C16.8172 13.3652 16.6885 13.2933 16.564 13.2163L17.353 11.9406ZM17.6205 12.0898C18.8286 12.6938 20.25 11.8153 20.25 10.4647H21.75C21.75 12.9304 19.1551 14.5341 16.9497 13.4314L17.6205 12.0898ZM20.25 10.4647V7.53532H21.75V10.4647H20.25ZM20.25 7.53532C20.25 6.18466 18.8286 5.30619 17.6205 5.91022L16.9497 4.56858C19.1551 3.46587 21.75 5.06959 21.75 7.53532H20.25ZM17.6205 5.91022C17.5285 5.95622 17.4393 6.00604 17.353 6.05942L16.564 4.78373C16.6885 4.70668 16.8172 4.63484 16.9497 4.56858L17.6205 5.91022ZM16.2162 5.52909C15.9886 3.95756 14.6347 2.75 13 2.75V1.25C15.3907 1.25 17.3678 3.01551 17.7007 5.31406L16.2162 5.52909ZM13 2.75H5V1.25H13V2.75ZM5 2.75C3.20507 2.75 1.75 4.20507 1.75 6H0.25C0.25 3.37665 2.37665 1.25 5 1.25V2.75ZM1.75 6V12H0.25V6H1.75ZM1.75 12C1.75 13.7949 3.20507 15.25 5 15.25V16.75C2.37665 16.75 0.25 14.6234 0.25 12H1.75ZM5 15.25H13V16.75H5V15.25ZM13 15.25C14.6347 15.25 15.9886 14.0424 16.2162 12.4709L17.7007 12.6859C17.3678 14.9845 15.3907 16.75 13 16.75V15.25ZM15.75 9.06319V12H14.25V9.06319H15.75ZM15.75 12C15.75 13.5188 14.5188 14.75 13 14.75V13.25C13.6904 13.25 14.25 12.6904 14.25 12H15.75ZM13 14.75H5V13.25H13V14.75ZM5 14.75C3.48122 14.75 2.25 13.5188 2.25 12H3.75C3.75 12.6904 4.30964 13.25 5 13.25V14.75ZM2.25 12V6H3.75V12H2.25ZM2.25 6C2.25 4.48122 3.48122 3.25 5 3.25V4.75C4.30964 4.75 3.75 5.30964 3.75 6H2.25ZM5 3.25H13V4.75H5V3.25ZM13 3.25C14.5188 3.25 15.75 4.48122 15.75 6H14.25C14.25 5.30964 13.6904 4.75 13 4.75V3.25ZM15.75 6V8.93681H14.25V6H15.75ZM15.75 8.93681V9.06319H14.25V8.93681H15.75Z" fill="white"/>
<path d="M16 1L2 17" stroke="white" stroke-width="1.5" stroke-linecap="round" stroke-linejoin="round"/>
<path d="M17 2L3 18" stroke="#1C1F2E" stroke-width="1.5" stroke-linecap="round" stroke-linejoin="round"/>
</svg>
