<svg width="32" height="23" viewBox="0 0 32 23" fill="none" xmlns="http://www.w3.org/2000/svg">
<g filter="url(#filter0_d_1071:258)">
<path fill-rule="evenodd" clip-rule="evenodd" d="M23.5638 3.3335V12.6668L20.291 9.61052V6.34385L23.5638 3.3335Z" fill="white"/>
</g>
<path fill-rule="evenodd" clip-rule="evenodd" d="M0 4.04762C0 1.81218 1.81218 0 4.04762 0H15.5888C17.8243 0 19.6364 1.81218 19.6364 4.04762V11.9524C19.6364 14.1878 17.8243 16 15.5888 16H4.04762C1.81218 16 0 14.1878 0 11.9524V4.04762ZM3.49092 11.619C3.49092 11.2509 3.78939 10.9524 4.15758 10.9524H5.15154C5.51973 10.9524 5.81821 11.2509 5.81821 11.619C5.81821 11.9872 5.51973 12.2857 5.15154 12.2857H4.15758C3.78939 12.2857 3.49092 11.9872 3.49092 11.619ZM7.64851 10.9524C7.28032 10.9524 6.98185 11.2509 6.98185 11.619C6.98185 11.9872 7.28032 12.2857 7.64851 12.2857H13.297C13.6652 12.2857 13.9637 11.9872 13.9637 11.619C13.9637 11.2509 13.6652 10.9524 13.297 10.9524H7.64851Z" fill="white"/>
<defs>
<filter id="filter0_d_1071:258" x="16.291" y="1.3335" width="15.2729" height="21.3335" filterUnits="userSpaceOnUse" color-interpolation-filters="sRGB">
<feFlood flood-opacity="0" result="BackgroundImageFix"/>
<feColorMatrix in="SourceAlpha" type="matrix" values="0 0 0 0 0 0 0 0 0 0 0 0 0 0 0 0 0 0 127 0" result="hardAlpha"/>
<feOffset dx="2" dy="4"/>
<feGaussianBlur stdDeviation="3"/>
<feColorMatrix type="matrix" values="0 0 0 0 0.0901961 0 0 0 0 0.501961 0 0 0 0 0.105882 0 0 0 0.495356 0"/>
<feBlend mode="normal" in2="BackgroundImageFix" result="effect1_dropShadow_1071:258"/>
<feBlend mode="normal" in="SourceGraphic" in2="effect1_dropShadow_1071:258" result="shape"/>
</filter>
</defs>
</svg>
