<svg width="18" height="18" viewBox="0 0 18 18" fill="none" xmlns="http://www.w3.org/2000/svg">
<path fill-rule="evenodd" clip-rule="evenodd" d="M8.87043 0C7.90496 0 7.07732 0.689705 6.90322 1.63934L6.81146 2.13984C6.44777 2.25597 6.09663 2.40022 5.76062 2.57003L5.26425 2.24777C4.47229 1.7336 3.42863 1.84336 2.76096 2.51103L2.50216 2.76983C1.83601 3.43598 1.72506 4.47669 2.23579 5.26831L2.56381 5.77673C2.40829 6.08685 2.27451 6.40976 2.16448 6.74345L1.58394 6.86693C0.66037 7.06335 0 7.87895 0 8.82317V9.18917C0 10.1312 0.657441 10.9456 1.57835 11.1442L2.16951 11.2717C2.28695 11.6252 2.43104 11.9665 2.59941 12.2933L2.30712 12.7168C1.75873 13.5114 1.85627 14.5843 2.53896 15.267L2.72752 15.4556C3.41021 16.1382 4.48314 16.2358 5.27774 15.6874L5.69755 15.3977C6.03191 15.5708 6.38158 15.7185 6.74398 15.8382L6.86688 16.4161C7.06331 17.3396 7.8789 18 8.82313 18H9.18913C10.1312 18 10.9456 17.3426 11.1442 16.4217L11.2705 15.8359C11.6261 15.7181 11.9694 15.5732 12.298 15.4039L12.7167 15.6928C13.5113 16.2412 14.5842 16.1436 15.2669 15.461L15.4554 15.2724C16.1381 14.5897 16.2357 13.5168 15.6873 12.7222L15.4009 12.3073C15.5845 11.9529 15.7395 11.5813 15.8629 11.1956L16.3607 11.1044C17.3103 10.9303 18 10.1026 18 9.13714V8.87047C18 7.905 17.3103 7.07736 16.3607 6.90326L15.8655 6.81247C15.7489 6.44666 15.604 6.09353 15.4332 5.75569L15.7522 5.26437C16.2663 4.47241 16.1566 3.42875 15.4889 2.76108L15.2301 2.50228C14.5639 1.83613 13.5232 1.72518 12.7316 2.23592L12.2283 2.56064C11.8979 2.39489 11.5531 2.25381 11.1961 2.13982L11.1043 1.63934C10.9302 0.689705 10.1026 0 9.1371 0H8.87043ZM9.00007 11.7C10.4912 11.7 11.7001 10.4912 11.7001 8.99998C11.7001 7.50881 10.4912 6.29998 9.00007 6.29998C7.5089 6.29998 6.30007 7.50881 6.30007 8.99998C6.30007 10.4912 7.5089 11.7 9.00007 11.7Z" fill="white"/>
</svg>
