<svg width="23" height="15" viewBox="0 0 23 15" fill="none" xmlns="http://www.w3.org/2000/svg">
<path d="M22.3851 4.73627C22.3851 4.55234 22.2841 4.38327 22.1222 4.29605C21.9602 4.20884 21.7635 4.21757 21.6099 4.31879L18.6946 6.24027C18.5542 6.33279 18.4697 6.48964 18.4697 6.65775V8.60132C18.4697 8.76757 18.5524 8.92295 18.6902 9.01589L21.6056 10.9815C21.7588 11.0849 21.9566 11.0952 22.1199 11.0084C22.2831 10.9216 22.3851 10.7518 22.3851 10.567V4.73627Z" fill="white" stroke="white" stroke-linecap="round" stroke-linejoin="round"/>
<path fill-rule="evenodd" clip-rule="evenodd" d="M0.505859 1.84918C0.505859 1.2969 0.953575 0.849182 1.50586 0.849182H13.998C16.2071 0.849182 17.998 2.64004 17.998 4.84918V13.4542C17.998 14.0065 17.5503 14.4542 16.998 14.4542H4.50586C2.29672 14.4542 0.505859 12.6633 0.505859 10.4542V1.84918ZM3.42136 10.4212C3.42136 9.96504 3.79118 9.59522 4.24737 9.59522H4.53891C4.99511 9.59522 5.36493 9.96504 5.36493 10.4212C5.36493 10.8774 4.99511 11.2473 4.53891 11.2473H4.24737C3.79118 11.2473 3.42136 10.8774 3.42136 10.4212ZM7.16257 9.59522C6.70637 9.59522 6.33655 9.96504 6.33655 10.4212C6.33655 10.8774 6.70637 11.2473 7.16257 11.2473H11.3412C11.7974 11.2473 12.1673 10.8774 12.1673 10.4212C12.1673 9.96504 11.7974 9.59522 11.3412 9.59522H7.16257Z" fill="white"/>
</svg>
