<svg width="18" height="18" viewBox="0 0 18 18" fill="none" xmlns="http://www.w3.org/2000/svg">
<path d="M0.0949469 16.9547L0.510551 16.6768C0.517425 16.687 0.527195 16.695 0.538629 16.6998C0.550056 16.7045 0.56263 16.7057 0.574752 16.7033L0.672791 17.1936L0.57476 16.7033C0.58688 16.7009 0.598014 16.6949 0.60675 16.6861L0.607196 16.6857L3.81677 13.4761C3.81679 13.4761 3.8168 13.4761 3.81682 13.4761C4.12149 13.1713 4.53473 13.0001 4.96564 13H4.96575H15.75C16.2141 13 16.6592 12.8156 16.9874 12.4874C17.3156 12.1593 17.5 11.7141 17.5 11.25V2.25C17.5 1.78587 17.3156 1.34075 16.9874 1.01256C16.6592 0.684374 16.2141 0.5 15.75 0.5H2.25C1.78587 0.5 1.34075 0.684375 1.01256 1.01256C0.684375 1.34075 0.5 1.78587 0.5 2.25V16.642L0.0949469 16.9547ZM0.0949469 16.9547L0.510548 16.6768M0.0949469 16.9547L0.510548 16.6768M0.510548 16.6768C0.503694 16.6665 0.500024 16.6545 0.5 16.6421L0.510548 16.6768Z" fill="white" stroke="black"/>
</svg>
