<svg width="22" height="16" viewBox="0 0 22 16" fill="none" xmlns="http://www.w3.org/2000/svg">
<path d="M9.02174 10.2682C9.30089 10.5491 9.6329 10.772 9.99861 10.924C10.3643 11.0759 10.7565 11.154 11.1525 11.1536C11.5485 11.1532 11.9406 11.0744 12.306 10.9218C12.6714 10.7692 13.003 10.5457 13.2816 10.2643C13.5602 9.98284 13.7804 9.64903 13.9294 9.2821C14.0783 8.91516 14.1532 8.52237 14.1496 8.12636C14.146 7.73036 14.064 7.33898 13.9084 6.97481C13.7528 6.61064 13.5266 6.28089 13.243 6.00456" stroke="#8b8b8b" stroke-linecap="round" stroke-linejoin="round"/>
<path d="M5.87313 13.129C4.02813 11.819 2.56813 10.115 1.74313 9.039C1.51244 8.74198 1.38721 8.37659 1.38721 8.0005C1.38721 7.62441 1.51244 7.25902 1.74313 6.962C3.23613 5.013 6.81813 1 11.0001 1C12.8761 1 14.6301 1.807 16.1301 2.874" stroke="#8b8b8b" stroke-linecap="round" stroke-linejoin="round"/>
<path d="M13.13 5.887C12.8523 5.60467 12.5214 5.38011 12.1565 5.22628C11.7916 5.07246 11.3998 4.99241 11.0038 4.99075C10.6078 4.98909 10.2153 5.06586 9.84913 5.21662C9.48293 5.36738 9.1502 5.58916 8.87014 5.86915C8.59008 6.14915 8.36822 6.48182 8.21738 6.84799C8.06653 7.21416 7.98967 7.60657 7.99123 8.00258C7.9928 8.3986 8.07276 8.79039 8.2265 9.15535C8.38024 9.52031 8.60472 9.85123 8.88698 10.129" stroke="#8b8b8b" stroke-linecap="round" stroke-linejoin="round"/>
<path d="M9 14.704C9.6492 14.8972 10.3227 14.9969 11 15C15.182 15 18.764 10.987 20.257 9.038C20.4876 8.74071 20.6127 8.37509 20.6125 7.99883C20.6124 7.62256 20.4869 7.25707 20.256 6.96C19.7313 6.27549 18.0984 4.62112 17.5 4" stroke="#8b8b8b" stroke-linecap="round" stroke-linejoin="round"/>
</svg>
