<svg width="16" height="15" viewBox="0 0 16 15" fill="none" xmlns="http://www.w3.org/2000/svg">
<path fill-rule="evenodd" clip-rule="evenodd" d="M4.06689 0.849182C1.85776 0.849182 0.0668945 2.64004 0.0668945 4.84918V8.82158C0.0668945 11.0307 1.85775 12.8216 4.06689 12.8216H11.3045C13.5136 12.8216 15.3045 11.0307 15.3045 8.82158V4.84918C15.3045 2.64004 13.5136 0.849182 11.3045 0.849182H4.06689ZM4.96456 13.3658C4.66401 13.3658 4.42036 13.6094 4.42036 13.91C4.42036 14.2105 4.66401 14.4542 4.96456 14.4542H10.4066C10.7071 14.4542 10.9508 14.2105 10.9508 13.91C10.9508 13.6094 10.7071 13.3658 10.4066 13.3658H4.96456Z" fill="white"/>
<path fill-rule="evenodd" clip-rule="evenodd" d="M12.1693 3.70142L10.13 3.69959C9.86641 3.69982 9.6576 3.9066 9.65744 4.16757C9.65728 4.42853 9.86584 4.63494 10.1294 4.63471L11.0301 4.63391L9.02256 6.62191C8.83939 6.80329 8.83921 7.1005 9.02216 7.28157C9.2051 7.46263 9.50531 7.46236 9.68848 7.28098L11.696 5.29298L11.6954 6.18461C11.6953 6.44557 11.9038 6.65198 12.1674 6.65175C12.2992 6.65163 12.4164 6.60079 12.5007 6.51735C12.5849 6.43391 12.6363 6.31063 12.64 6.18377L12.6376 4.16494C12.6377 4.0417 12.5901 3.92214 12.5023 3.83523C12.4145 3.74832 12.2937 3.70131 12.1693 3.70142Z" fill="#61636D"/>
</svg>
