<svg width="14" height="17" viewBox="0 0 14 17" fill="none" xmlns="http://www.w3.org/2000/svg">
<g>
<path d="M8 13.917L7.87591 13.1774C7.51463 13.238 7.25 13.5507 7.25 13.917H8ZM6 13.917H6.75C6.75 13.5507 6.48537 13.238 6.12409 13.1774L6 13.917ZM1 8V7.25C0.585786 7.25 0.25 7.58579 0.25 8H1ZM3 8H3.75C3.75 7.58579 3.41421 7.25 3 7.25V8ZM11 8V7.25C10.5858 7.25 10.25 7.58579 10.25 8H11ZM13 8H13.75C13.75 7.58579 13.4142 7.25 13 7.25V8ZM7.25 13.917V15H8.75V13.917H7.25ZM7.25 15C7.25 15.1381 7.13807 15.25 7 15.25V16.75C7.9665 16.75 8.75 15.9665 8.75 15H7.25ZM7 15.25C6.86193 15.25 6.75 15.1381 6.75 15H5.25C5.25 15.9665 6.0335 16.75 7 16.75V15.25ZM6.75 15V13.917H5.25V15H6.75ZM6.12409 13.1774C3.64166 12.7609 1.75 10.6006 1.75 8H0.25C0.25 11.3454 2.68291 14.121 5.87591 14.6567L6.12409 13.1774ZM1 8.75H3V7.25H1V8.75ZM2.25 8C2.25 10.6234 4.37665 12.75 7 12.75V11.25C5.20507 11.25 3.75 9.79493 3.75 8H2.25ZM7 12.75C9.62335 12.75 11.75 10.6234 11.75 8H10.25C10.25 9.79493 8.79493 11.25 7 11.25V12.75ZM11 8.75H13V7.25H11V8.75ZM12.25 8C12.25 10.6006 10.3583 12.7609 7.87591 13.1774L8.12409 14.6567C11.3171 14.121 13.75 11.3454 13.75 8H12.25Z" fill="white"/>
<rect x="4.75" y="1.25" width="4.5" height="8.5" rx="2.25" stroke="white" stroke-width="1.5" stroke-linecap="round" stroke-linejoin="round"/>
</g>
</svg>
