<svg width="31" height="24" viewBox="0 0 31 24" fill="none" xmlns="http://www.w3.org/2000/svg">
<path d="M30.129 14.2385L29.8015 15.7444C29.493 17.1573 28.1428 18.0743 26.6448 17.8915L23.6629 17.523C22.3646 17.3626 21.2783 16.4093 20.9796 15.1641L20.1473 11.7001C18.7969 11.1032 17.2988 10.8085 15.6544 10.8137C14.0706 10.8063 12.5013 11.1167 11.0396 11.7267L10.3857 14.9329C10.1361 16.1482 9.10454 17.0318 7.82642 17.1256L4.84699 17.3477C3.35948 17.4577 1.96244 16.4778 1.57791 15.0539L1.1659 13.5275C0.755903 12.0085 1.1983 10.4319 2.32852 9.39104C4.99608 6.9316 9.36566 5.77775 15.4379 5.92832C21.5194 6.07943 25.9601 7.45711 28.7547 10.0598C29.9309 11.1548 30.4546 12.7441 30.129 14.2385Z" fill="white"/>
</svg>
