<svg width="40" height="24" viewBox="0 0 40 24" fill="none" xmlns="http://www.w3.org/2000/svg">
<path d="M40 12C40 18.5846 34.6462 24 28 24C21.4154 24 16 18.5846 16 12C16 5.41538 21.3538 0 27.9385 0C34.6462 0 40 5.41538 40 12Z" fill="#F9B50B"/>
<path d="M23.9385 12.0615C23.9385 11.2 23.8154 10.3385 23.6923 9.53846H16.3077C16.3692 9.10769 16.4923 8.73846 16.6154 8.24615H23.2C23.0769 7.81538 22.8923 7.38462 22.7077 6.95385H17.1077C17.2923 6.52308 17.5385 6.15385 17.7846 5.66154H22.0308C21.7846 5.23077 21.4769 4.8 21.1077 4.36923H18.7692C19.1385 3.93846 19.5077 3.56923 20 3.13846C17.9077 1.16923 15.0769 0 11.9385 0C5.41538 0.184615 0 5.41538 0 12C0 18.5846 5.35385 24 12 24C15.1385 24 17.9077 22.7692 20.0615 20.8615C20.4923 20.4923 20.8615 20.0615 21.2923 19.5692H18.8308C18.5231 19.2 18.2154 18.7692 17.9692 18.3385H22.1538C22.4 17.9692 22.6462 17.5385 22.8308 17.0462H17.2308C17.0462 16.6769 16.8615 16.2462 16.7385 15.7538H23.3231C23.6923 14.6462 23.9385 13.4154 23.9385 12.0615Z" fill="#C8191C"/>
<path d="M16.2461 15.0771L16.4307 13.9694C16.3691 13.9694 16.2461 14.0309 16.123 14.0309C15.6922 14.0309 15.6307 13.7847 15.6922 13.6617L16.0614 11.4463H16.7384L16.923 10.2155H16.3076L16.4307 9.47705H15.1384C15.1384 9.47705 14.3999 13.6617 14.3999 14.154C14.3999 14.8924 14.8307 15.2617 15.4461 15.2617C15.8153 15.2617 16.123 15.1386 16.2461 15.0771Z" fill="white"/>
<path d="M16.677 13.0461C16.677 14.8307 17.9078 15.2615 18.8924 15.2615C19.8155 15.2615 20.2462 15.0769 20.2462 15.0769L20.4924 13.8461C20.4924 13.8461 19.8155 14.1538 19.1385 14.1538C17.7232 14.1538 17.9693 13.1077 17.9693 13.1077H20.5539C20.5539 13.1077 20.7385 12.3077 20.7385 11.9384C20.7385 11.1384 20.3078 10.0923 18.8924 10.0923C17.6616 10.0307 16.677 11.4461 16.677 13.0461ZM18.8924 11.2C19.5693 11.2 19.4462 12 19.4462 12.0615H18.0308C18.0924 12 18.2155 11.2 18.8924 11.2Z" fill="white"/>
<path d="M26.954 15.0767L27.2001 13.6613C27.2001 13.6613 26.5848 13.969 26.0924 13.969C25.2309 13.969 24.8001 13.2921 24.8001 12.4921C24.8001 10.9536 25.5386 10.1536 26.4617 10.1536C27.0771 10.1536 27.6309 10.5229 27.6309 10.5229L27.8155 9.16902C27.8155 9.16902 27.0771 8.86133 26.3386 8.86133C24.8617 8.86133 23.4463 10.1536 23.4463 12.5536C23.4463 14.1536 24.1848 15.1998 25.7232 15.1998C26.2771 15.2613 26.954 15.0767 26.954 15.0767Z" fill="white"/>
<path d="M9.29233 10.0308C8.4308 10.0308 7.75387 10.2769 7.75387 10.2769L7.56926 11.3846C7.56926 11.3846 8.1231 11.1385 8.98464 11.1385C9.41541 11.1385 9.78464 11.2 9.78464 11.5692C9.78464 11.8154 9.7231 11.8769 9.7231 11.8769H9.16926C8.06156 11.8769 6.89233 12.3077 6.89233 13.7846C6.89233 14.9538 7.6308 15.2 8.1231 15.2C8.98464 15.2 9.41541 14.6461 9.47695 14.6461L9.41541 15.1385H10.4616L10.9539 11.6308C10.9539 10.0923 9.7231 10.0308 9.29233 10.0308ZM9.53849 12.8615C9.53849 13.0461 9.41541 14.0923 8.67695 14.0923C8.30772 14.0923 8.18464 13.7846 8.18464 13.6C8.18464 13.2923 8.36926 12.8615 9.35387 12.8615C9.47695 12.8615 9.53849 12.8615 9.53849 12.8615Z" fill="white"/>
<path d="M12.1847 15.2C12.4924 15.2 14.0924 15.2615 14.0924 13.5385C14.0924 11.9385 12.5539 12.2462 12.5539 11.6308C12.5539 11.3231 12.8001 11.2 13.2309 11.2C13.4155 11.2 14.0924 11.2615 14.0924 11.2615L14.277 10.0923C14.277 10.0923 13.8462 9.96924 13.0462 9.96924C12.1232 9.96924 11.1385 10.3385 11.1385 11.6308C11.1385 13.1077 12.7385 12.9846 12.7385 13.5385C12.7385 13.9077 12.3078 13.9692 12.0001 13.9692C11.4462 13.9692 10.8309 13.7846 10.8309 13.7846L10.6462 14.9539C10.7693 15.0769 11.1385 15.2 12.1847 15.2Z" fill="white"/>
<path d="M37.5385 9.0459L37.2923 10.769C37.2923 10.769 36.8 10.1536 36.0616 10.1536C34.8923 10.1536 33.9077 11.569 33.9077 13.2305C33.9077 14.2767 34.4 15.3228 35.5077 15.3228C36.2462 15.3228 36.7385 14.8305 36.7385 14.8305L36.6769 15.2613H37.9693L38.8923 9.16898L37.5385 9.0459ZM36.9231 12.369C36.9231 13.0459 36.6154 13.969 35.8769 13.969C35.4462 13.969 35.2 13.5997 35.2 12.9228C35.2 11.8767 35.6308 11.2613 36.2462 11.2613C36.6769 11.3228 36.9231 11.6305 36.9231 12.369Z" fill="white"/>
<path d="M2.33844 15.1382L3.0769 10.5844L3.19997 15.1382H4.06151L5.72305 10.5844L5.04613 15.1382H6.39997L7.44613 9.0459H5.35382L4.06151 12.7997L3.99997 9.0459H2.15382L1.10767 15.1382H2.33844Z" fill="white"/>
<path d="M22.0307 15.1384C22.4 13.0461 22.4615 11.323 23.3846 11.6307C23.5077 10.8307 23.6923 10.4615 23.8154 10.1538H23.5692C23.0154 10.1538 22.523 10.8923 22.523 10.8923L22.6461 10.2153H21.4154L20.6154 15.1384H22.0307Z" fill="white"/>
<path d="M29.9077 10.0308C29.0462 10.0308 28.3692 10.2769 28.3692 10.2769L28.1846 11.3846C28.1846 11.3846 28.7385 11.1385 29.6 11.1385C30.0308 11.1385 30.4 11.2 30.4 11.5692C30.4 11.8154 30.3385 11.8769 30.3385 11.8769H29.7846C28.6769 11.8769 27.5077 12.3077 27.5077 13.7846C27.5077 14.9538 28.2462 15.2 28.7385 15.2C29.6 15.2 30.0308 14.6461 30.0923 14.6461L30.0308 15.1385H31.2L31.6923 11.6308C31.6923 10.0923 30.3385 10.0308 29.9077 10.0308ZM30.2154 12.8615C30.2154 13.0461 30.0923 14.0923 29.3538 14.0923C28.9846 14.0923 28.8615 13.7846 28.8615 13.6C28.8615 13.2923 29.0462 12.8615 30.0308 12.8615C30.1538 12.8615 30.1538 12.8615 30.2154 12.8615Z" fill="white"/>
<path d="M32.677 15.1384C33.0462 13.0461 33.1078 11.323 34.0308 11.6307C34.1539 10.8307 34.3385 10.4615 34.4616 10.1538H34.2154C33.6616 10.1538 33.1693 10.8923 33.1693 10.8923L33.2924 10.2153H32.0616L31.2616 15.1384H32.677Z" fill="white"/>
</svg>
