<svg width="20" height="20" viewBox="0 0 20 20" fill="none" xmlns="http://www.w3.org/2000/svg">
<path d="M0 4.13793C0 1.85261 1.85261 0 4.13793 0H15.1724C17.4577 0 19.3103 1.85261 19.3103 4.13793V15.8621C19.3103 18.1474 17.4577 20 15.1724 20H4.13793C1.85262 20 0 18.1474 0 15.8621V4.13793Z" fill="#BEBEBE"/>
<path d="M5.06477 15.8621H9.00408V14.5876H7.05925L8.01925 13.6193C8.54891 13.0897 8.92132 12.4938 8.92132 11.7986C8.92132 10.6317 7.99442 9.95312 6.95994 9.95312C6.15718 9.95312 5.37925 10.3586 5.00684 11.2193L6.12408 11.8731C6.28132 11.509 6.57097 11.2442 6.97649 11.2442C7.36546 11.2442 7.59718 11.4924 7.59718 11.8566C7.59718 12.1959 7.34891 12.5352 7.00959 12.8828L5.06477 14.9021V15.8621Z" fill="#FAFAFA"/>
<path d="M11.8215 15.978C13.3194 15.978 14.1801 14.7531 14.1801 12.9655C14.1801 11.178 13.3194 9.95312 11.8215 9.95312C10.3236 9.95312 9.46287 11.178 9.46287 12.9655C9.46287 14.7531 10.3236 15.978 11.8215 15.978ZM11.8215 14.6869C11.1263 14.6869 10.787 14.0828 10.787 12.9655C10.787 11.8483 11.1263 11.2442 11.8215 11.2442C12.5167 11.2442 12.856 11.8483 12.856 12.9655C12.856 14.0828 12.5167 14.6869 11.8215 14.6869Z" fill="#FAFAFA"/>
<path d="M6.89632 4.09212C6.89632 4.8285 6.27878 5.42546 5.51701 5.42546C4.75523 5.42546 4.1377 4.8285 4.1377 4.09212C4.1377 3.35574 4.75523 2.75879 5.51701 2.75879C6.27878 2.75879 6.89632 3.35574 6.89632 4.09212Z" fill="#FAFAFA"/>
<path d="M15.1722 4.09212C15.1722 4.8285 14.5547 5.42546 13.7929 5.42546C13.0311 5.42546 12.4136 4.8285 12.4136 4.09212C12.4136 3.35574 13.0311 2.75879 13.7929 2.75879C14.5547 2.75879 15.1722 3.35574 15.1722 4.09212Z" fill="#FAFAFA"/>
</svg>
