<svg width="22" height="16" viewBox="0 0 22 16" fill="none" xmlns="http://www.w3.org/2000/svg">
<path d="M18.1796 6.02826L18.515 6.69908L18.515 6.69908L18.1796 6.02826ZM18.1796 9.97174L17.8441 10.6426H17.8441L18.1796 9.97174ZM16.9585 11.5784L16.2162 11.4709L16.3802 10.3389L17.353 10.9406L16.9585 11.5784ZM17.2851 11.7606L17.6205 11.0898H17.6205L17.2851 11.7606ZM17.2851 4.2394L17.6205 4.91022L17.6205 4.91022L17.2851 4.2394ZM16.9585 4.42158L17.353 5.05942L16.3802 5.66113L16.2162 4.52909L16.9585 4.42158ZM16.25 7.93681C16.25 6.8445 16.8671 5.84593 17.8441 5.35744L18.515 6.69908C18.0461 6.93349 17.75 7.41266 17.75 7.93681H16.25ZM17.8441 5.35744C18.7198 4.91963 19.75 5.55635 19.75 6.53532H18.25C18.25 6.67142 18.3932 6.75994 18.515 6.69908L17.8441 5.35744ZM19.75 6.53532V9.46468H18.25V6.53532H19.75ZM19.75 9.46468C19.75 10.4436 18.7198 11.0804 17.8441 10.6426L18.515 9.30092C18.3932 9.24006 18.25 9.32858 18.25 9.46468H19.75ZM17.8441 10.6426C16.8671 10.1541 16.25 9.1555 16.25 8.06319H17.75C17.75 8.58734 18.0461 9.06651 18.515 9.30092L17.8441 10.6426ZM16.25 8.06319V7.93681H17.75V8.06319H16.25ZM17.353 10.9406C17.4393 10.994 17.5285 11.0438 17.6205 11.0898L16.9497 12.4314C16.8172 12.3652 16.6885 12.2933 16.564 12.2163L17.353 10.9406ZM17.6205 11.0898C18.8286 11.6938 20.25 10.8153 20.25 9.46468H21.75C21.75 11.9304 19.1551 13.5341 16.9497 12.4314L17.6205 11.0898ZM20.25 9.46468V6.53532H21.75V9.46468H20.25ZM20.25 6.53532C20.25 5.18466 18.8286 4.30619 17.6205 4.91022L16.9497 3.56858C19.1551 2.46587 21.75 4.06959 21.75 6.53532H20.25ZM17.6205 4.91022C17.5285 4.95622 17.4393 5.00604 17.353 5.05942L16.564 3.78373C16.6885 3.70668 16.8172 3.63484 16.9497 3.56858L17.6205 4.91022ZM16.2162 4.52909C15.9886 2.95756 14.6347 1.75 13 1.75V0.25C15.3907 0.25 17.3678 2.01551 17.7007 4.31406L16.2162 4.52909ZM13 1.75H5V0.25H13V1.75ZM5 1.75C3.20507 1.75 1.75 3.20507 1.75 5H0.25C0.25 2.37665 2.37665 0.25 5 0.25V1.75ZM1.75 5V11H0.25V5H1.75ZM1.75 11C1.75 12.7949 3.20507 14.25 5 14.25V15.75C2.37665 15.75 0.25 13.6234 0.25 11H1.75ZM5 14.25H13V15.75H5V14.25ZM13 14.25C14.6347 14.25 15.9886 13.0424 16.2162 11.4709L17.7007 11.6859C17.3678 13.9845 15.3907 15.75 13 15.75V14.25ZM15.75 8.06319V11H14.25V8.06319H15.75ZM15.75 11C15.75 12.5188 14.5188 13.75 13 13.75V12.25C13.6904 12.25 14.25 11.6904 14.25 11H15.75ZM13 13.75H5V12.25H13V13.75ZM5 13.75C3.48122 13.75 2.25 12.5188 2.25 11H3.75C3.75 11.6904 4.30964 12.25 5 12.25V13.75ZM2.25 11V5H3.75V11H2.25ZM2.25 5C2.25 3.48122 3.48122 2.25 5 2.25V3.75C4.30964 3.75 3.75 4.30964 3.75 5H2.25ZM5 2.25H13V3.75H5V2.25ZM13 2.25C14.5188 2.25 15.75 3.48122 15.75 5H14.25C14.25 4.30964 13.6904 3.75 13 3.75V2.25ZM15.75 5V7.93681H14.25V5H15.75ZM15.75 7.93681V8.06319H14.25V7.93681H15.75Z" fill="white"/>
</svg>
