<svg width="20" height="19" viewBox="0 0 20 19" fill="none" xmlns="http://www.w3.org/2000/svg">
<g opacity="0.298456">
<path d="M11.8161 15L11.4601 14.3399L11.6267 14.25H11.8161V15ZM7.12043 17.532L7.47639 18.1921L7.12043 17.532ZM5.06023 16.1906L5.80795 16.249L5.06023 16.1906ZM5.15881 14.9295L5.28409 14.1901L5.95996 14.3046L5.90653 14.988L5.15881 14.9295ZM7.15941 15L6.41169 14.9415L6.46575 14.25H7.15941V15ZM7.60212 15V14.25L7.95808 15.6601L7.60212 15ZM7.13992 15.2492L7.49588 15.9094L6.28498 16.5623L6.39221 15.1908L7.13992 15.2492ZM5.31579 12.9216L6.06351 12.9801L5.99548 13.8503L5.14541 13.652L5.31579 12.9216ZM12.6444 13V13.75H12.3705L12.161 13.5734L12.6444 13ZM12.3001 12.8108L12.5252 12.0954L12.5252 12.0954L12.3001 12.8108ZM6.691 11.0461L6.46592 11.7615V11.7615L6.691 11.0461ZM5.39393 11.9221L4.64622 11.8636V11.8636L5.39393 11.9221ZM18.25 6C18.25 3.65279 16.3472 1.75 14 1.75V0.25C17.1756 0.25 19.75 2.82436 19.75 6H18.25ZM18.25 10V6H19.75V10H18.25ZM14 14.25C16.3472 14.25 18.25 12.3472 18.25 10H19.75C19.75 13.1756 17.1756 15.75 14 15.75V14.25ZM11.8161 14.25H14V15.75H11.8161V14.25ZM6.76447 16.8718L11.4601 14.3399L12.172 15.6601L7.47639 18.1921L6.76447 16.8718ZM5.80795 16.249C5.76784 16.7621 6.31151 17.1161 6.76447 16.8718L7.47639 18.1921C5.97815 19 4.17984 17.8291 4.31251 16.1321L5.80795 16.249ZM5.90653 14.988L5.80795 16.249L4.31251 16.1321L4.41109 14.8711L5.90653 14.988ZM1.75 10C1.75 12.1028 3.27788 13.8502 5.28409 14.1901L5.03354 15.669C2.31795 15.209 0.25 12.8467 0.25 10H1.75ZM1.75 6V10H0.25V6H1.75ZM6 1.75C3.65279 1.75 1.75 3.65279 1.75 6H0.25C0.25 2.82436 2.82436 0.25 6 0.25V1.75ZM14 1.75H6V0.25H14V1.75ZM7.15941 14.25H7.60212V15.75H7.15941V14.25ZM6.39221 15.1908L6.41169 14.9415L7.90713 15.0585L7.88764 15.3077L6.39221 15.1908ZM7.95808 15.6601L7.49588 15.9094L6.78396 14.5891L7.24616 14.3399L7.95808 15.6601ZM5.14541 13.652C3.48639 13.265 2.25 11.7778 2.25 10H3.75C3.75 11.0651 4.49085 11.9591 5.48617 12.1912L5.14541 13.652ZM2.25 10V6H3.75V10H2.25ZM2.25 6C2.25 3.92893 3.92893 2.25 6 2.25V3.75C4.75736 3.75 3.75 4.75736 3.75 6H2.25ZM6 2.25H14V3.75H6V2.25ZM14 2.25C16.0711 2.25 17.75 3.92893 17.75 6H16.25C16.25 4.75736 15.2426 3.75 14 3.75V2.25ZM17.75 6V10H16.25V6H17.75ZM17.75 10C17.75 12.0711 16.0711 13.75 14 13.75V12.25C15.2426 12.25 16.25 11.2426 16.25 10H17.75ZM14 13.75H12.6444V12.25H14V13.75ZM12.161 13.5734C12.1363 13.5526 12.1075 13.5364 12.075 13.5262L12.5252 12.0954C12.7502 12.1661 12.954 12.28 13.1278 12.4266L12.161 13.5734ZM12.075 13.5262L6.46592 11.7615L6.91609 10.3307L12.5252 12.0954L12.075 13.5262ZM6.46592 11.7615C6.39325 11.7387 6.31411 11.7502 6.25097 11.7928L5.41148 10.5497C5.85343 10.2513 6.40737 10.1706 6.91609 10.3307L6.46592 11.7615ZM6.25097 11.7928C6.18784 11.8355 6.14759 11.9046 6.14165 11.9805L4.64622 11.8636C4.68778 11.3319 4.96952 10.8482 5.41148 10.5497L6.25097 11.7928ZM6.14165 11.9805L6.06351 12.9801L4.56807 12.8632L4.64622 11.8636L6.14165 11.9805Z" fill="white"/>
</g>
</svg>
