<svg width="14" height="16" viewBox="0 0 14 16" fill="none" xmlns="http://www.w3.org/2000/svg">
<path d="M1.85575 6.01045L1.74756 5.2683H1.74756L1.85575 6.01045ZM2.98954 6.85575L3.73169 6.74756V6.74756L2.98954 6.85575ZM1.01045 7.14424L0.268296 7.25243V7.25243L1.01045 7.14424ZM1.10653 7.80335L1.84869 7.69516H1.84869L1.10653 7.80335ZM5.99999 12.8161H6.74999C6.74999 12.4502 6.48607 12.1378 6.1254 12.0766L5.99999 12.8161ZM7.99999 12.8161L7.87459 12.0766C7.51392 12.1378 7.24999 12.4502 7.24999 12.8161H7.99999ZM12.8935 7.80335L12.1513 7.69516V7.69516L12.8935 7.80335ZM12.9895 7.14424L13.7317 7.25243V7.25243L12.9895 7.14424ZM12.1442 6.01045L12.0361 6.75261V6.75261L12.1442 6.01045ZM11.0105 6.85575L10.2683 6.74756V6.74756L11.0105 6.85575ZM10.9144 7.51485L11.6565 7.62304V7.62304L10.9144 7.51485ZM3.08562 7.51485L2.34346 7.62304L3.08562 7.51485ZM1.96393 6.75261C2.10056 6.73269 2.22746 6.8273 2.24738 6.96393L3.73169 6.74756C3.59228 5.79117 2.70395 5.12888 1.74756 5.2683L1.96393 6.75261ZM1.75261 7.03606C1.73269 6.89943 1.8273 6.77252 1.96393 6.75261L1.74756 5.2683C0.791169 5.40771 0.12888 6.29604 0.268296 7.25243L1.75261 7.03606ZM1.84869 7.69516L1.75261 7.03606L0.268296 7.25243L0.364376 7.91154L1.84869 7.69516ZM6.1254 12.0766C3.93438 11.705 2.17862 9.9585 1.84869 7.69516L0.364376 7.91154C0.789534 10.8281 3.05156 13.0767 5.87459 13.5555L6.1254 12.0766ZM6.74999 14V12.8161H5.24999V14H6.74999ZM6.99999 14.25C6.86192 14.25 6.74999 14.1381 6.74999 14H5.24999C5.24999 14.9665 6.0335 15.75 6.99999 15.75V14.25ZM7.24999 14C7.24999 14.1381 7.13806 14.25 6.99999 14.25V15.75C7.96649 15.75 8.74999 14.9665 8.74999 14H7.24999ZM7.24999 12.8161V14H8.74999V12.8161H7.24999ZM12.1513 7.69516C11.8214 9.9585 10.0656 11.705 7.87459 12.0766L8.1254 13.5555C10.9484 13.0767 13.2105 10.8281 13.6356 7.91154L12.1513 7.69516ZM12.2474 7.03605L12.1513 7.69516L13.6356 7.91154L13.7317 7.25243L12.2474 7.03605ZM12.0361 6.75261C12.1727 6.77252 12.2673 6.89943 12.2474 7.03606L13.7317 7.25243C13.8711 6.29604 13.2088 5.40771 12.2524 5.2683L12.0361 6.75261ZM11.7526 6.96393C11.7725 6.8273 11.8994 6.73269 12.0361 6.75261L12.2524 5.2683C11.296 5.12888 10.4077 5.79117 10.2683 6.74756L11.7526 6.96393ZM11.6565 7.62304L11.7526 6.96393L10.2683 6.74756L10.1722 7.40667L11.6565 7.62304ZM6.99999 11.65C9.33671 11.65 11.3195 9.93532 11.6565 7.62304L10.1722 7.40667C9.94259 8.98189 8.59186 10.15 6.99999 10.15V11.65ZM2.34346 7.62304C2.68053 9.93532 4.66328 11.65 6.99999 11.65V10.15C5.40813 10.15 4.05739 8.98189 3.82777 7.40667L2.34346 7.62304ZM2.24738 6.96393L2.34346 7.62304L3.82777 7.40667L3.73169 6.74756L2.24738 6.96393Z" fill="white"/>
<rect x="4" width="6" height="10" rx="3" fill="white"/>
<path fill-rule="evenodd" clip-rule="evenodd" d="M4 5H10V7C10 8.65685 8.65685 10 7 10C5.34315 10 4 8.65685 4 7V5Z" fill="white"/>
</svg>
