<svg width="19" height="19" viewBox="0 0 19 19" fill="none" xmlns="http://www.w3.org/2000/svg">
<g clip-path="url(#clip0)">
<path d="M6.18408 3.98291C6.18408 3.08085 6.54243 2.21573 7.18028 1.57787C7.81814 0.94001 8.68326 0.581665 9.58533 0.581665C10.4874 0.581665 11.3525 0.94001 11.9904 1.57787C12.6282 2.21573 12.9866 3.08085 12.9866 3.98291V9.65166C12.9866 10.5537 12.6282 11.4189 11.9904 12.0567C11.3525 12.6946 10.4874 13.0529 9.58533 13.0529C8.68326 13.0529 7.81814 12.6946 7.18028 12.0567C6.54243 11.4189 6.18408 10.5537 6.18408 9.65166V3.98291Z" fill="white"/>
<path d="M4.88422 8.11708C4.77791 8.01077 4.63372 7.95105 4.48338 7.95105C4.33303 7.95105 4.18885 8.01077 4.08254 8.11708C3.97623 8.22339 3.9165 8.36758 3.9165 8.51792V9.65167C3.91649 11.057 4.43846 12.4122 5.38117 13.4544C6.32388 14.4966 7.62011 15.1515 9.01838 15.2921V17.021C9.01838 17.3341 9.27218 17.5879 9.58525 17.5879C9.89833 17.5879 10.1521 17.3341 10.1521 17.021V15.2921C11.5504 15.1515 12.8466 14.4966 13.7893 13.4544C14.732 12.4122 15.254 11.057 15.254 9.65167V8.51792C15.254 8.36758 15.1943 8.22339 15.088 8.11708C14.9817 8.01077 14.8375 7.95105 14.6871 7.95105C14.5368 7.95105 14.3926 8.01077 14.2863 8.11708C14.18 8.22339 14.1203 8.36758 14.1203 8.51792V9.65167C14.1203 10.8544 13.6425 12.0079 12.792 12.8584C11.9415 13.7089 10.788 14.1867 9.58525 14.1867C8.3825 14.1867 7.229 13.7089 6.37852 12.8584C5.52805 12.0079 5.05025 10.8544 5.05025 9.65167V8.51792C5.05025 8.36758 4.99053 8.22339 4.88422 8.11708Z" fill="white"/>
</g>
<defs>
<clipPath id="clip0">
<rect width="18.14" height="18.14" fill="white" transform="translate(0.515137 0.581665)"/>
</clipPath>
</defs>
</svg>
