<svg width="17" height="16" viewBox="0 0 17 16" fill="none" xmlns="http://www.w3.org/2000/svg">
<path d="M5.59717 3C5.59717 2.20435 5.90804 1.44129 6.4614 0.87868C7.01476 0.31607 7.76528 0 8.54785 0C9.33042 0 10.0809 0.31607 10.6343 0.87868C11.1877 1.44129 11.4985 2.20435 11.4985 3V8C11.4985 8.79565 11.1877 9.55871 10.6343 10.1213C10.0809 10.6839 9.33042 11 8.54785 11C7.76528 11 7.01476 10.6839 6.4614 10.1213C5.90804 9.55871 5.59717 8.79565 5.59717 8V3Z" fill="white"/>
<path d="M4.46965 6.64645C4.37742 6.55268 4.25234 6.5 4.12191 6.5C3.99148 6.5 3.86639 6.55268 3.77417 6.64645C3.68194 6.74021 3.63013 6.86739 3.63013 7V8C3.63011 9.23953 4.08294 10.4349 4.90077 11.3541C5.7186 12.2734 6.84311 12.851 8.05615 12.975V14.5082C8.05615 14.7798 8.27633 15 8.54794 15C8.81954 15 9.03972 14.7798 9.03972 14.5082V12.975C10.2528 12.851 11.3773 12.2734 12.1951 11.3541C13.0129 10.4349 13.4658 9.23953 13.4657 8V7C13.4657 6.86739 13.4139 6.74021 13.3217 6.64645C13.2295 6.55268 13.1044 6.5 12.974 6.5C12.8435 6.5 12.7184 6.55268 12.6262 6.64645C12.534 6.74021 12.4822 6.86739 12.4822 7V8C12.4822 9.06087 12.0677 10.0783 11.3299 10.8284C10.5921 11.5786 9.59136 12 8.54794 12C7.50451 12 6.50382 11.5786 5.766 10.8284C5.02819 10.0783 4.61369 9.06087 4.61369 8V7C4.61369 6.86739 4.56188 6.74021 4.46965 6.64645Z" fill="white"/>
</svg>
