<svg width="61" height="60" viewBox="0 0 61 60" fill="none" xmlns="http://www.w3.org/2000/svg">
<g filter="url(#filter0_i)">
<rect x="0.0214844" width="60" height="60" rx="12" fill="#08DE6F" fill-opacity="0.08"/>
</g>
<rect x="0.521484" y="0.5" width="59" height="59" rx="11.5" stroke="url(#paint0_linear)" stroke-opacity="0.4" stroke-linecap="round" stroke-linejoin="round"/>
<g filter="url(#filter1_d)">
<path d="M15.0215 23C15.0215 18.5817 18.6032 15 23.0215 15H37.0215C41.4398 15 45.0215 18.5817 45.0215 23V37C45.0215 41.4183 41.4398 45 37.0215 45H23.0215C18.6032 45 15.0215 41.4183 15.0215 37V23Z" fill="#00BE5B"/>
</g>
<rect x="24.0215" y="29" width="12" height="2" rx="1" fill="white"/>
<path fill-rule="evenodd" clip-rule="evenodd" d="M30.0215 24C30.5738 24 31.0215 24.4477 31.0215 25V35C31.0215 35.5523 30.5738 36 30.0215 36C29.4692 36 29.0215 35.5523 29.0215 35L29.0215 25C29.0215 24.4477 29.4692 24 30.0215 24Z" fill="white"/>
<defs>
<filter id="filter0_i" x="0.0214844" y="0" width="60" height="60" filterUnits="userSpaceOnUse" color-interpolation-filters="sRGB">
<feFlood flood-opacity="0" result="BackgroundImageFix"/>
<feBlend mode="normal" in="SourceGraphic" in2="BackgroundImageFix" result="shape"/>
<feColorMatrix in="SourceAlpha" type="matrix" values="0 0 0 0 0 0 0 0 0 0 0 0 0 0 0 0 0 0 127 0" result="hardAlpha"/>
<feOffset/>
<feGaussianBlur stdDeviation="14"/>
<feComposite in2="hardAlpha" operator="arithmetic" k2="-1" k3="1"/>
<feColorMatrix type="matrix" values="0 0 0 0 0.0313725 0 0 0 0 0.870588 0 0 0 0 0.435294 0 0 0 0.11 0"/>
<feBlend mode="normal" in2="shape" result="effect1_innerShadow"/>
</filter>
<filter id="filter1_d" x="11.0215" y="13" width="42" height="42" filterUnits="userSpaceOnUse" color-interpolation-filters="sRGB">
<feFlood flood-opacity="0" result="BackgroundImageFix"/>
<feColorMatrix in="SourceAlpha" type="matrix" values="0 0 0 0 0 0 0 0 0 0 0 0 0 0 0 0 0 0 127 0" result="hardAlpha"/>
<feOffset dx="2" dy="4"/>
<feGaussianBlur stdDeviation="3"/>
<feColorMatrix type="matrix" values="0 0 0 0 0.0886365 0 0 0 0 0.503451 0 0 0 0 0.105229 0 0 0 0.12 0"/>
<feBlend mode="normal" in2="BackgroundImageFix" result="effect1_dropShadow"/>
<feBlend mode="normal" in="SourceGraphic" in2="effect1_dropShadow" result="shape"/>
</filter>
<linearGradient id="paint0_linear" x1="32.0215" y1="-10" x2="30.0215" y2="60" gradientUnits="userSpaceOnUse">
<stop stop-color="#08DE6F"/>
<stop offset="1" stop-color="#08DE6F" stop-opacity="0"/>
</linearGradient>
</defs>
</svg>
