<svg width="48" height="49" viewBox="0 0 48 49" fill="none" xmlns="http://www.w3.org/2000/svg">
<rect y="0.0578613" width="48" height="48" rx="24" fill="#04C561"/>
<g clip-path="url(#clip0_1150:8)" filter="url(#filter0_d_1150:8)">
<path d="M15.5281 15.586C14.3498 16.7641 13.4152 18.1629 12.7775 19.7023C12.1398 21.2417 11.8116 22.8916 11.8116 24.5579C11.8116 26.2241 12.1398 27.874 12.7775 29.4134C13.4152 30.9529 14.3498 32.3516 15.5281 33.5297C15.6932 33.7006 15.7845 33.9296 15.7825 34.1672C15.7804 34.4048 15.6851 34.6321 15.5171 34.8001C15.349 34.9682 15.1217 35.0635 14.8841 35.0655C14.6465 35.0676 14.4176 34.9762 14.2467 34.8112C12.9001 33.4647 11.832 31.8662 11.1033 30.1069C10.3745 28.3477 9.99945 26.4621 9.99945 24.5579C9.99945 22.6536 10.3745 20.768 11.1033 19.0088C11.832 17.2495 12.9001 15.651 14.2467 14.3045C14.4176 14.1395 14.6465 14.0481 14.8841 14.0502C15.1217 14.0522 15.349 14.1476 15.5171 14.3156C15.6851 14.4836 15.7804 14.7109 15.7825 14.9485C15.7845 15.1861 15.6932 15.4151 15.5281 15.586ZM19.3742 19.4321C18.0151 20.7917 17.2515 22.6354 17.2515 24.5579C17.2515 26.4803 18.0151 28.324 19.3742 29.6836C19.4585 29.7679 19.5253 29.8679 19.5709 29.978C19.6165 30.0881 19.64 30.2061 19.64 30.3252C19.64 30.4444 19.6165 30.5624 19.5709 30.6725C19.5253 30.7826 19.4585 30.8826 19.3742 30.9669C19.29 31.0511 19.1899 31.118 19.0798 31.1636C18.9698 31.2092 18.8518 31.2326 18.7326 31.2326C18.6134 31.2326 18.4954 31.2092 18.3854 31.1636C18.2753 31.118 18.1752 31.0511 18.091 30.9669C17.2492 30.1253 16.5814 29.1261 16.1259 28.0265C15.6703 26.9268 15.4358 25.7482 15.4358 24.5579C15.4358 23.3675 15.6703 22.1889 16.1259 21.0892C16.5814 19.9896 17.2492 18.9904 18.091 18.1489C18.2611 17.9787 18.4919 17.8831 18.7326 17.8831C18.9733 17.8831 19.2041 17.9787 19.3742 18.1489C19.5444 18.319 19.64 18.5498 19.64 18.7905C19.64 19.0311 19.5444 19.2619 19.3742 19.4321ZM29.6257 18.1489C29.7099 18.0645 29.8099 17.9975 29.92 17.9518C30.0301 17.9061 30.1481 17.8826 30.2674 17.8826C30.3866 17.8826 30.5046 17.9061 30.6147 17.9518C30.7248 17.9975 30.8248 18.0645 30.909 18.1489C31.7508 18.9904 32.4185 19.9896 32.8741 21.0892C33.3297 22.1889 33.5642 23.3675 33.5642 24.5579C33.5642 25.7482 33.3297 26.9268 32.8741 28.0265C32.4185 29.1261 31.7508 30.1253 30.909 30.9669C30.8247 31.0511 30.7247 31.118 30.6146 31.1636C30.5045 31.2092 30.3865 31.2326 30.2674 31.2326C30.1482 31.2326 30.0302 31.2092 29.9201 31.1636C29.81 31.118 29.71 31.0511 29.6257 30.9669C29.5415 30.8826 29.4746 30.7826 29.429 30.6725C29.3834 30.5624 29.36 30.4444 29.36 30.3252C29.36 30.2061 29.3834 30.0881 29.429 29.978C29.4746 29.8679 29.5415 29.7679 29.6257 29.6836C30.9849 28.324 31.7484 26.4803 31.7484 24.5579C31.7484 22.6354 30.9849 20.7917 29.6257 19.4321C29.5413 19.3479 29.4744 19.2479 29.4287 19.1378C29.383 19.0277 29.3595 18.9097 29.3595 18.7905C29.3595 18.6713 29.383 18.5532 29.4287 18.4431C29.4744 18.333 29.5413 18.233 29.6257 18.1489ZM33.4719 14.3064C33.6418 14.1365 33.8723 14.041 34.1126 14.041C34.3529 14.041 34.5833 14.1365 34.7533 14.3064C37.4722 17.0256 38.9996 20.7134 38.9996 24.5588C38.9996 28.4041 37.4722 32.0919 34.7533 34.8112C34.5824 34.9762 34.3534 35.0676 34.1158 35.0655C33.8782 35.0635 33.6509 34.9682 33.4829 34.8001C33.3149 34.6321 33.2196 34.4048 33.2175 34.1672C33.2154 33.9296 33.3068 33.7006 33.4719 33.5297C34.6501 32.3516 35.5848 30.9529 36.2225 29.4134C36.8602 27.874 37.1884 26.2241 37.1884 24.5579C37.1884 22.8916 36.8602 21.2417 36.2225 19.7023C35.5848 18.1629 34.6501 16.7641 33.4719 15.586C33.302 15.416 33.2065 15.1856 33.2065 14.9453C33.2065 14.705 33.302 14.4745 33.4719 14.3045V14.3064ZM28.125 24.5579C28.125 25.5193 27.7431 26.4413 27.0632 27.1211C26.3834 27.8009 25.4614 28.1829 24.5 28.1829C23.5386 28.1829 22.6165 27.8009 21.9367 27.1211C21.2569 26.4413 20.875 25.5193 20.875 24.5579C20.875 23.5964 21.2569 22.6744 21.9367 21.9946C22.6165 21.3148 23.5386 20.9329 24.5 20.9329C25.4614 20.9329 26.3834 21.3148 27.0632 21.9946C27.7431 22.6744 28.125 23.5964 28.125 24.5579Z" fill="white"/>
</g>
<defs>
<filter id="filter0_d_1150:8" x="6" y="8.05786" width="41" height="41" filterUnits="userSpaceOnUse" color-interpolation-filters="sRGB">
<feFlood flood-opacity="0" result="BackgroundImageFix"/>
<feColorMatrix in="SourceAlpha" type="matrix" values="0 0 0 0 0 0 0 0 0 0 0 0 0 0 0 0 0 0 127 0" result="hardAlpha"/>
<feOffset dx="2" dy="4"/>
<feGaussianBlur stdDeviation="3"/>
<feColorMatrix type="matrix" values="0 0 0 0 0.0901961 0 0 0 0 0.501961 0 0 0 0 0.105882 0 0 0 0.495356 0"/>
<feBlend mode="normal" in2="BackgroundImageFix" result="effect1_dropShadow_1150:8"/>
<feBlend mode="normal" in="SourceGraphic" in2="effect1_dropShadow_1150:8" result="shape"/>
</filter>
<clipPath id="clip0_1150:8">
<rect width="29" height="29" fill="white" transform="translate(10 10.0579)"/>
</clipPath>
</defs>
</svg>
