<svg width="48" height="49" viewBox="0 0 48 49" fill="none" xmlns="http://www.w3.org/2000/svg">
<rect y="0.0578613" width="48" height="48" rx="24" fill="#04C561"/>
<g filter="url(#filter0_d_1149:659)">
<path d="M12.8965 16.8165C12.8965 14.1884 15.0271 12.0579 17.6552 12.0579H30.3448C32.9729 12.0579 35.1034 14.1884 35.1034 16.8165V30.2992C35.1034 32.9274 32.9729 35.0579 30.3448 35.0579H17.6552C15.0271 35.0579 12.8965 32.9274 12.8965 30.2992V16.8165Z" fill="white"/>
</g>
<path d="M18.7212 29.782H23.2514V28.3163H21.0148L22.1188 27.2028C22.728 26.5937 23.1562 25.9085 23.1562 25.109C23.1562 23.7671 22.0903 22.9867 20.9006 22.9867C19.9775 22.9867 19.0828 23.453 18.6546 24.4428L19.9394 25.1947C20.1202 24.7759 20.4533 24.4714 20.9197 24.4714C21.367 24.4714 21.6335 24.7569 21.6335 25.1756C21.6335 25.5658 21.348 25.9561 20.9577 26.3558L18.7212 28.678V29.782ZM26.4914 29.9152C28.214 29.9152 29.2038 28.5067 29.2038 26.4509C29.2038 24.3952 28.214 22.9867 26.4914 22.9867C24.7688 22.9867 23.779 24.3952 23.779 26.4509C23.779 28.5067 24.7688 29.9152 26.4914 29.9152ZM26.4914 28.4305C25.692 28.4305 25.3018 27.7358 25.3018 26.4509C25.3018 25.1661 25.692 24.4714 26.4914 24.4714C27.2909 24.4714 27.6811 25.1661 27.6811 26.4509C27.6811 27.7358 27.2909 28.4305 26.4914 28.4305Z" fill="#08DE6F"/>
<ellipse cx="19.2414" cy="16.7636" rx="1.58621" ry="1.53333" fill="#08DE6F"/>
<ellipse cx="28.7586" cy="16.7636" rx="1.58621" ry="1.53333" fill="#08DE6F"/>
<defs>
<filter id="filter0_d_1149:659" x="9.72413" y="10.4717" width="31.7242" height="32.5172" filterUnits="userSpaceOnUse" color-interpolation-filters="sRGB">
<feFlood flood-opacity="0" result="BackgroundImageFix"/>
<feColorMatrix in="SourceAlpha" type="matrix" values="0 0 0 0 0 0 0 0 0 0 0 0 0 0 0 0 0 0 127 0" result="hardAlpha"/>
<feOffset dx="1.58621" dy="3.17241"/>
<feGaussianBlur stdDeviation="2.37931"/>
<feColorMatrix type="matrix" values="0 0 0 0 0.0901961 0 0 0 0 0.501961 0 0 0 0 0.105882 0 0 0 0.495356 0"/>
<feBlend mode="normal" in2="BackgroundImageFix" result="effect1_dropShadow_1149:659"/>
<feBlend mode="normal" in="SourceGraphic" in2="effect1_dropShadow_1149:659" result="shape"/>
</filter>
</defs>
</svg>
