<svg width="48" height="48" viewBox="0 0 48 48" fill="none" xmlns="http://www.w3.org/2000/svg">
<rect width="48" height="48" rx="24" fill="#04C561"/>
<g filter="url(#filter0_d_1281_451)">
<g filter="url(#filter1_d_1281_451)">
<path d="M9 16.4849C9 14.008 11.008 12 13.4849 12H33.7878C36.2648 12 38.2727 14.008 38.2727 16.4849V30.5151C38.2727 32.992 36.2648 35 33.7878 35H13.4849C11.008 35 9 32.992 9 30.5151V16.4849Z" fill="white"/>
</g>
</g>
<circle cx="15.403" cy="15.1364" r="0.914764" fill="#04C561"/>
<circle cx="18.1482" cy="15.1364" r="0.914764" fill="#04C561"/>
<circle cx="12.6589" cy="15.1364" r="0.914764" fill="#04C561"/>
<path d="M23.636 27.0396C26.6122 27.0396 29.1246 27.5293 29.1246 29.4206C29.1246 31.3119 26.5961 31.7853 23.636 31.7853C20.6599 31.7853 18.1475 31.2948 18.1475 29.4043C18.1475 27.513 20.6753 27.0396 23.636 27.0396ZM23.636 17.8809C25.6519 17.8809 27.2678 19.5177 27.2678 21.5596C27.2678 23.6015 25.6519 25.2383 23.636 25.2383C21.6202 25.2383 20.0043 23.6015 20.0043 21.5596C20.0043 19.5177 21.6202 17.8809 23.636 17.8809Z" fill="#04C561"/>
<defs>
<filter id="filter0_d_1281_451" x="5.82759" y="10.4138" width="38.7897" height="32.5172" filterUnits="userSpaceOnUse" color-interpolation-filters="sRGB">
<feFlood flood-opacity="0" result="BackgroundImageFix"/>
<feColorMatrix in="SourceAlpha" type="matrix" values="0 0 0 0 0 0 0 0 0 0 0 0 0 0 0 0 0 0 127 0" result="hardAlpha"/>
<feOffset dx="1.58621" dy="3.17241"/>
<feGaussianBlur stdDeviation="2.37931"/>
<feColorMatrix type="matrix" values="0 0 0 0 0.0901961 0 0 0 0 0.501961 0 0 0 0 0.105882 0 0 0 0.37 0"/>
<feBlend mode="normal" in2="BackgroundImageFix" result="effect1_dropShadow_1281_451"/>
<feBlend mode="normal" in="SourceGraphic" in2="effect1_dropShadow_1281_451" result="shape"/>
</filter>
<filter id="filter1_d_1281_451" x="6.01006" y="10.505" width="38.2423" height="31.9698" filterUnits="userSpaceOnUse" color-interpolation-filters="sRGB">
<feFlood flood-opacity="0" result="BackgroundImageFix"/>
<feColorMatrix in="SourceAlpha" type="matrix" values="0 0 0 0 0 0 0 0 0 0 0 0 0 0 0 0 0 0 127 0" result="hardAlpha"/>
<feOffset dx="1.49497" dy="2.98994"/>
<feGaussianBlur stdDeviation="2.24245"/>
<feColorMatrix type="matrix" values="0 0 0 0 0.0886365 0 0 0 0 0.503451 0 0 0 0 0.105229 0 0 0 0.12 0"/>
<feBlend mode="normal" in2="BackgroundImageFix" result="effect1_dropShadow_1281_451"/>
<feBlend mode="normal" in="SourceGraphic" in2="effect1_dropShadow_1281_451" result="shape"/>
</filter>
</defs>
</svg>
