<svg width="48" height="48" viewBox="0 0 48 48" fill="none" xmlns="http://www.w3.org/2000/svg">
<rect width="48" height="48" rx="24" fill="#04C561"/>
<g filter="url(#filter0_d_1460_104)">
<path d="M21.3333 12H13.3333C12.9797 12 12.6406 12.1405 12.3905 12.3905C12.1405 12.6406 12 12.9797 12 13.3333V21.3333C12 21.687 12.1405 22.0261 12.3905 22.2761C12.6406 22.5262 12.9797 22.6667 13.3333 22.6667H21.3333C21.687 22.6667 22.0261 22.5262 22.2761 22.2761C22.5262 22.0261 22.6667 21.687 22.6667 21.3333V13.3333C22.6667 12.9797 22.5262 12.6406 22.2761 12.3905C22.0261 12.1405 21.687 12 21.3333 12ZM34.6667 12H26.6667C26.313 12 25.9739 12.1405 25.7239 12.3905C25.4738 12.6406 25.3333 12.9797 25.3333 13.3333V21.3333C25.3333 21.687 25.4738 22.0261 25.7239 22.2761C25.9739 22.5262 26.313 22.6667 26.6667 22.6667H34.6667C35.0203 22.6667 35.3594 22.5262 35.6095 22.2761C35.8595 22.0261 36 21.687 36 21.3333V13.3333C36 12.9797 35.8595 12.6406 35.6095 12.3905C35.3594 12.1405 35.0203 12 34.6667 12ZM21.3333 25.3333H13.3333C12.9797 25.3333 12.6406 25.4738 12.3905 25.7239C12.1405 25.9739 12 26.313 12 26.6667V34.6667C12 35.0203 12.1405 35.3594 12.3905 35.6095C12.6406 35.8595 12.9797 36 13.3333 36H21.3333C21.687 36 22.0261 35.8595 22.2761 35.6095C22.5262 35.3594 22.6667 35.0203 22.6667 34.6667V26.6667C22.6667 26.313 22.5262 25.9739 22.2761 25.7239C22.0261 25.4738 21.687 25.3333 21.3333 25.3333ZM32 26.6667H29.3333V29.3333H26.6667V32H29.3333V34.6667H32V32H34.6667V29.3333H32V26.6667Z" fill="white"/>
</g>
<defs>
<filter id="filter0_d_1460_104" x="8.82759" y="10.4138" width="33.5172" height="33.5172" filterUnits="userSpaceOnUse" color-interpolation-filters="sRGB">
<feFlood flood-opacity="0" result="BackgroundImageFix"/>
<feColorMatrix in="SourceAlpha" type="matrix" values="0 0 0 0 0 0 0 0 0 0 0 0 0 0 0 0 0 0 127 0" result="hardAlpha"/>
<feOffset dx="1.58621" dy="3.17241"/>
<feGaussianBlur stdDeviation="2.37931"/>
<feColorMatrix type="matrix" values="0 0 0 0 0.0901961 0 0 0 0 0.501961 0 0 0 0 0.105882 0 0 0 0.495356 0"/>
<feBlend mode="normal" in2="BackgroundImageFix" result="effect1_dropShadow_1460_104"/>
<feBlend mode="normal" in="SourceGraphic" in2="effect1_dropShadow_1460_104" result="shape"/>
</filter>
</defs>
</svg>
