<svg width="140" height="27" viewBox="0 0 140 27" fill="none" xmlns="http://www.w3.org/2000/svg">
<path d="M41.5999 6.89992V20.7999C41.5999 21.7999 40.4999 22.4999 39.5999 21.9999L33.5999 18.4999L32.6999 17.9999L27.5999 14.9999C27.0999 14.6999 26.8999 14.2999 26.8999 13.7999C26.8999 13.2999 27.0999 12.8999 27.5999 12.5999L32.7999 9.59992L33.6999 9.09992L39.6999 5.59992C40.4999 5.19992 41.5999 5.79992 41.5999 6.89992Z" fill="#04B057"/>
<path d="M32.9 11.5999V15.7999C32.9 16.4999 32.8 17.1999 32.7 17.8999C31.7 23.0999 27.1 26.9999 21.6 26.9999H0V11.5999C0 5.3999 5 0.399902 11.2 0.399902H21.6C27.1 0.399902 31.8 4.3999 32.7 9.6999C32.8 10.2999 32.9 10.9999 32.9 11.5999Z" fill="#05D268"/>
<path d="M58.4998 10.4C58.4998 10.9 58.7998 11.3 59.2998 11.5C59.7998 11.8 60.4998 12 61.1998 12.3C61.8998 12.5 62.6998 12.8 63.4998 13C64.2998 13.2 64.8998 13.7 65.4998 14.4C65.9998 15.1 66.2998 15.9 66.2998 16.9C66.2998 18.3 65.7998 19.4 64.6998 20.2C63.5998 21 62.2998 21.4 60.6998 21.4C59.2998 21.4 57.9998 21.1 56.9998 20.5C55.9998 19.9 55.1998 19.1 54.7998 18L57.4998 16.4C57.9998 17.8 59.0998 18.5 60.6998 18.5C62.2998 18.5 63.1998 18 63.1998 16.9C63.1998 16.4 62.8998 16.1 62.3998 15.8C61.8998 15.5 61.1998 15.3 60.4998 15C59.7998 14.8 58.9998 14.5 58.1998 14.3C57.3998 14.1 56.7998 13.6 56.1998 13C55.6998 12.4 55.3998 11.6 55.3998 10.6C55.3998 9.29995 55.8998 8.19995 56.8998 7.39995C57.8998 6.59995 59.1998 6.19995 60.6998 6.19995C61.8998 6.19995 62.9998 6.49995 63.8998 6.99995C64.7998 7.49995 65.5998 8.29995 66.0998 9.19995L63.4998 10.7C62.9998 9.59995 62.0998 9.09995 60.7998 9.09995C60.1998 9.09995 59.6998 9.19995 59.2998 9.49995C58.6998 9.59995 58.4998 9.89995 58.4998 10.4Z" fill="#FFFFFF"/>
<path d="M76.4999 6.1001C78.1999 6.1001 79.4999 6.6001 80.4999 7.7001C81.4999 8.8001 81.9999 10.2001 81.9999 12.1001V21.0001H78.8999V12.4001C78.8999 11.3001 78.5999 10.5001 77.9999 9.9001C77.4999 9.3001 76.6999 9.0001 75.6999 9.0001C74.5999 9.0001 73.6999 9.3001 72.9999 10.0001C72.2999 10.7001 71.9999 11.7001 71.9999 13.1001V20.9001H68.8999V0.600098H71.9999V8.2001C72.9999 6.8001 74.4999 6.1001 76.4999 6.1001Z" fill="#FFFFFF"/>
<path d="M95.1001 6.3999H98.2001V20.8999H95.1001V19.0999C94.2001 20.5999 92.7001 21.2999 90.6001 21.2999C88.9001 21.2999 87.6001 20.7999 86.6001 19.6999C85.6001 18.5999 85.1001 17.1999 85.1001 15.2999V6.3999H88.2001V14.9999C88.2001 16.0999 88.5001 16.8999 89.1001 17.4999C89.7001 18.0999 90.5001 18.3999 91.5001 18.3999C92.6001 18.3999 93.5001 18.0999 94.2001 17.3999C94.9001 16.6999 95.2001 15.6999 95.2001 14.2999C95.1001 14.1999 95.1001 6.3999 95.1001 6.3999Z" fill="#FFFFFF"/>
<path d="M117.4 0C118.6 0 120 0.1 121.5 0.4C121.7 0.4 121.9 0.7 121.9 0.9V20.9H118.8V2.8C118.5 2.8 118 2.8 117.4 2.8C115.1 2.8 114 3.8 114 5.9V6.5H116.7V9.5H114V20.9H110.9V9.5H106.1V20.9H103V9.5H100.8V6.5H103V6.2C103 4.2 103.6 2.7 104.7 1.7C105.8 0.7 107.4 0.2 109.6 0.3V3.3C107.3 3.1 106.2 4 106.2 6.2V6.5H111V5.9C110.9 2 113.1 0 117.4 0Z" fill="#FFFFFF"/>
<path d="M128 15.0001C128.2 16.1001 128.8 17.0001 129.6 17.5001C130.4 18.1001 131.4 18.4001 132.6 18.4001C134.3 18.4001 135.5 17.8001 136.3 16.6001L138.9 18.1001C137.5 20.2001 135.4 21.3001 132.6 21.3001C130.3 21.3001 128.3 20.6001 126.9 19.1001C125.4 17.7001 124.7 15.8001 124.7 13.7001C124.7 11.5001 125.4 9.7001 126.8 8.3001C128.2 6.8001 130.1 6.1001 132.3 6.1001C134.4 6.1001 136.2 6.8001 137.5 8.3001C138.9 9.8001 139.5 11.6001 139.5 13.7001V15.0001H128ZM128 12.5001H136.5C136.3 11.3001 135.8 10.4001 135 9.8001C134.2 9.2001 133.3 8.9001 132.3 8.9001C131.1 8.9001 130.2 9.2001 129.4 9.9001C128.7 10.5001 128.2 11.4001 128 12.5001Z" fill="#FFFFFF"/>
</svg>
