<svg width="427" height="280" viewBox="0 0 427 280" fill="none" xmlns="http://www.w3.org/2000/svg">
<g clip-path="url(#clip0_929:88)">
<path d="M47.5005 229.124C72.54 229.124 92.8386 208.801 92.8386 183.732C92.8386 158.663 72.54 138.34 47.5005 138.34C22.4609 138.34 2.16235 158.663 2.16235 183.732C2.16235 208.801 22.4609 229.124 47.5005 229.124Z" fill="#F2F5F6"/>
<path d="M12.4698 169.443C12.2535 169.443 12.1094 169.371 11.9652 169.227L0.216239 157.464C-0.0720797 157.175 -0.0720797 156.742 0.216239 156.454C0.504558 156.165 0.937036 156.165 1.22535 156.454L12.4698 167.711L23.3538 156.815C23.6421 156.526 24.0746 156.526 24.3629 156.815L35.1028 167.567L47.1401 155.516C47.4284 155.227 47.8609 155.227 48.1492 155.516L58.3845 165.691C58.6729 165.979 58.6729 166.412 58.3845 166.701C58.0962 166.99 57.6637 166.99 57.3754 166.701L47.7167 157.031L35.6794 169.083C35.3911 169.371 34.9586 169.371 34.6703 169.083L23.9305 158.33L12.9743 169.227C12.8302 169.371 12.6139 169.443 12.4698 169.443Z" fill="#9E9EAB"/>
<path d="M18.8129 8.80412C21.2412 8.80412 23.2097 6.83325 23.2097 4.40206C23.2097 1.97087 21.2412 0 18.8129 0C16.3846 0 14.416 1.97087 14.416 4.40206C14.416 6.83325 16.3846 8.80412 18.8129 8.80412Z" fill="#F2F5F6"/>
<path d="M38.851 8.80412C41.2793 8.80412 43.2478 6.83325 43.2478 4.40206C43.2478 1.97087 41.2793 0 38.851 0C36.4226 0 34.4541 1.97087 34.4541 4.40206C34.4541 6.83325 36.4226 8.80412 38.851 8.80412Z" fill="#F2F5F6"/>
<path d="M58.889 8.80412C61.3174 8.80412 63.2859 6.83325 63.2859 4.40206C63.2859 1.97087 61.3174 0 58.889 0C56.4607 0 54.4922 1.97087 54.4922 4.40206C54.4922 6.83325 56.4607 8.80412 58.889 8.80412Z" fill="#F2F5F6"/>
<path d="M78.9274 8.80412C81.3557 8.80412 83.3242 6.83325 83.3242 4.40206C83.3242 1.97087 81.3557 0 78.9274 0C76.4991 0 74.5305 1.97087 74.5305 4.40206C74.5305 6.83325 76.4991 8.80412 78.9274 8.80412Z" fill="#F2F5F6"/>
<path d="M18.8129 24.8969C21.2412 24.8969 23.2097 22.926 23.2097 20.4948C23.2097 18.0636 21.2412 16.0928 18.8129 16.0928C16.3846 16.0928 14.416 18.0636 14.416 20.4948C14.416 22.926 16.3846 24.8969 18.8129 24.8969Z" fill="#F2F5F6"/>
<path d="M38.851 24.8969C41.2793 24.8969 43.2478 22.926 43.2478 20.4948C43.2478 18.0636 41.2793 16.0928 38.851 16.0928C36.4226 16.0928 34.4541 18.0636 34.4541 20.4948C34.4541 22.926 36.4226 24.8969 38.851 24.8969Z" fill="#F2F5F6"/>
<path d="M58.889 24.8969C61.3174 24.8969 63.2859 22.926 63.2859 20.4948C63.2859 18.0636 61.3174 16.0928 58.889 16.0928C56.4607 16.0928 54.4922 18.0636 54.4922 20.4948C54.4922 22.926 56.4607 24.8969 58.889 24.8969Z" fill="#F2F5F6"/>
<path d="M78.9274 24.8969C81.3557 24.8969 83.3242 22.926 83.3242 20.4948C83.3242 18.0636 81.3557 16.0928 78.9274 16.0928C76.4991 16.0928 74.5305 18.0636 74.5305 20.4948C74.5305 22.926 76.4991 24.8969 78.9274 24.8969Z" fill="#F2F5F6"/>
<path d="M18.8129 40.9897C21.2412 40.9897 23.2097 39.0188 23.2097 36.5876C23.2097 34.1564 21.2412 32.1855 18.8129 32.1855C16.3846 32.1855 14.416 34.1564 14.416 36.5876C14.416 39.0188 16.3846 40.9897 18.8129 40.9897Z" fill="#F2F5F6"/>
<path d="M38.851 40.9897C41.2793 40.9897 43.2478 39.0188 43.2478 36.5876C43.2478 34.1564 41.2793 32.1855 38.851 32.1855C36.4226 32.1855 34.4541 34.1564 34.4541 36.5876C34.4541 39.0188 36.4226 40.9897 38.851 40.9897Z" fill="#F2F5F6"/>
<path d="M58.889 40.9897C61.3174 40.9897 63.2859 39.0188 63.2859 36.5876C63.2859 34.1564 61.3174 32.1855 58.889 32.1855C56.4607 32.1855 54.4922 34.1564 54.4922 36.5876C54.4922 39.0188 56.4607 40.9897 58.889 40.9897Z" fill="#F2F5F6"/>
<path d="M78.9274 40.9897C81.3557 40.9897 83.3242 39.0188 83.3242 36.5876C83.3242 34.1564 81.3557 32.1855 78.9274 32.1855C76.4991 32.1855 74.5305 34.1564 74.5305 36.5876C74.5305 39.0188 76.4991 40.9897 78.9274 40.9897Z" fill="#F2F5F6"/>
<path d="M415.893 5.26807L415.316 58.0206L414.811 110.701L362.698 58.5258L310.584 6.42271L363.274 5.84539L415.893 5.26807Z" fill="#E2FCEE"/>
<path d="M427 264.773H17.3711V273.866H427V264.773Z" fill="#B5B5BF"/>
<path d="M420.945 280H23.4978C20.1101 280 17.4431 277.258 17.4431 273.938H427.072C427 277.258 424.261 280 420.945 280Z" fill="#9E9EAB"/>
<path d="M253.432 269.392H191.011C188.488 269.392 186.47 267.371 186.47 264.845H258.045C257.973 267.299 255.955 269.392 253.432 269.392Z" fill="#E5E5ED"/>
<path d="M396.222 41.4228V264.773H48.1492V41.4228C48.1492 35.0001 53.3389 29.8042 59.754 29.8042H384.689C391.032 29.8042 396.222 35.0001 396.222 41.4228Z" fill="#253857"/>
<path d="M384.977 42.5051H59.4656V252.144H384.977V42.5051Z" fill="white"/>
<path opacity="0.13" d="M172.198 29.8042H59.6819C53.3389 29.8042 48.1492 34.9279 48.1492 41.3506V264.773H384.761C388.365 264.773 394.132 267.299 396.294 264.773L172.198 29.8042Z" fill="white"/>
<path d="M226.33 36.8762C226.33 39.1855 224.456 41.0618 222.149 41.0618C219.843 41.0618 217.969 39.1855 217.969 36.8762C217.969 34.567 219.843 32.6907 222.149 32.6907C224.528 32.7628 226.33 34.6391 226.33 36.8762Z" fill="#35276D"/>
<path d="M176.379 42.6494H59.4656V154.361H176.379V42.6494Z" fill="white"/>
<path d="M176.379 154.361H59.4656V252.433H176.379V154.361Z" fill="#E2FCEE"/>
<path d="M384.977 76.2783H293.22V252.144H384.977V76.2783Z" fill="white"/>
<path d="M384.977 42.6494H293.22V76.2783H384.977V42.6494Z" fill="white"/>
<path d="M362.705 248.608H298.986C298.049 248.608 297.329 247.887 297.329 246.948V233.165C297.329 232.227 298.049 231.505 298.986 231.505H362.705V248.608Z" fill="#F2F5F6"/>
<path d="M379.355 248.608H362.561V231.433H379.355C380.364 231.433 381.157 232.227 381.157 233.237V246.804C381.157 247.815 380.292 248.608 379.355 248.608Z" fill="#E2FCEE"/>
<path d="M293.22 42.6494H176.595V154.361H293.22V42.6494Z" fill="#E2FCEE"/>
<path d="M176.595 42.6494H176.307V154.361H176.595V42.6494Z" fill="white"/>
<path d="M233.97 154.361H176.595V155.732H233.97V154.361Z" fill="#FFF6EB"/>
<path d="M293.22 154.361H176.307V252.433H293.22V154.361Z" fill="white"/>
<path d="M176.595 252.433V42.6495C176.595 42.5052 176.451 42.3608 176.307 42.3608C176.162 42.3608 176.018 42.5052 176.018 42.6495V252.433H176.595Z" fill="white"/>
<path d="M293.22 154.65H59.4656C59.3214 154.65 59.1772 154.505 59.1772 154.361C59.1772 154.217 59.3214 154.072 59.4656 154.072H293.22C293.364 154.072 293.508 154.217 293.508 154.361C293.436 154.505 293.364 154.65 293.22 154.65Z" fill="white"/>
<path d="M384.977 66.2475H293.22C293.076 66.2475 292.932 66.1032 292.932 65.9588C292.932 65.8145 293.076 65.6702 293.22 65.6702H384.977C385.122 65.6702 385.266 65.8145 385.266 65.9588C385.194 66.1753 385.122 66.2475 384.977 66.2475Z" fill="#F2F5F6"/>
<path d="M308.501 56.2164C308.501 59.3195 305.978 61.9174 302.807 61.9174C299.707 61.9174 297.112 59.3917 297.112 56.2164C297.112 53.1133 299.635 50.5154 302.807 50.5154C305.978 50.5875 308.501 53.1133 308.501 56.2164Z" fill="#F2F5F6"/>
<path d="M304.537 54.8452H300.356V58.237H304.537V54.8452Z" fill="#253857"/>
<path d="M302.879 56.505L305.762 58.1648V54.8452L302.879 56.505Z" fill="#253857"/>
<path d="M323.494 56.2164C323.494 59.3195 320.971 61.9174 317.799 61.9174C314.628 61.9174 312.105 59.3917 312.105 56.2164C312.105 53.1133 314.628 50.5154 317.799 50.5154C320.971 50.5154 323.494 53.1133 323.494 56.2164Z" fill="#F2F5F6"/>
<path d="M317.943 57.1544C317.367 57.1544 316.934 56.7214 316.934 56.1441V54.4122C316.934 53.8348 317.367 53.4019 317.943 53.4019C318.52 53.4019 318.953 53.8348 318.953 54.4122V56.1441C318.88 56.7214 318.448 57.1544 317.943 57.1544Z" fill="#253857"/>
<path d="M317.943 57.8762C317.439 57.8762 317.006 57.7319 316.646 57.3711C315.997 56.7216 316.141 55.5669 316.141 55.5669C316.141 55.4948 316.213 55.4226 316.285 55.4226C316.358 55.4226 316.43 55.4948 316.43 55.5669C316.43 55.5669 316.358 56.5772 316.862 57.1546C317.078 57.4432 317.439 57.5876 317.871 57.5876C318.304 57.5876 318.664 57.4432 318.88 57.1546C319.385 56.5772 319.241 55.5669 319.241 55.5669C319.241 55.4948 319.313 55.4226 319.385 55.4226C319.457 55.4226 319.529 55.4948 319.529 55.5669C319.529 55.6391 319.673 56.7216 319.097 57.3711C318.88 57.6597 318.448 57.8762 317.943 57.8762Z" fill="#253857"/>
<path d="M317.943 59.3195C317.871 59.3195 317.799 59.2473 317.799 59.1751V57.804C317.799 57.7318 317.871 57.6597 317.943 57.6597C318.015 57.6597 318.087 57.7318 318.087 57.804V59.1751C318.087 59.2473 318.015 59.3195 317.943 59.3195Z" fill="#253857"/>
<path d="M375.319 61.1236H333.657C331.062 61.1236 329.044 59.0308 329.044 56.505C329.044 53.9071 331.134 51.8865 333.657 51.8865H375.319C377.914 51.8865 379.932 53.9793 379.932 56.505C379.932 59.0308 377.842 61.1236 375.319 61.1236Z" fill="#F2F5F6"/>
<path d="M377.337 226.526H300.933C298.914 226.526 297.329 224.866 297.329 222.918C297.329 220.897 298.986 219.309 300.933 219.309H377.337C379.355 219.309 380.941 220.969 380.941 222.918C380.941 224.866 379.355 226.526 377.337 226.526Z" fill="#F2F5F6"/>
<path d="M373.012 80.9691H318.88C317.439 80.9691 316.285 79.8144 316.285 78.3711C316.285 76.9278 317.439 75.7732 318.88 75.7732H373.012C374.454 75.7732 375.607 76.9278 375.607 78.3711C375.607 79.8144 374.454 80.9691 373.012 80.9691Z" fill="#F2F5F6"/>
<path d="M338.991 90.1341H318.808C317.367 90.1341 316.213 88.9795 316.213 87.5362C316.213 86.0929 317.367 84.9382 318.808 84.9382H338.991C340.432 84.9382 341.585 86.0929 341.585 87.5362C341.585 88.9795 340.432 90.1341 338.991 90.1341Z" fill="#F2F5F6"/>
<path d="M304.464 90.0618C308.366 90.0618 311.528 86.8955 311.528 82.9896C311.528 79.0838 308.366 75.9175 304.464 75.9175C300.563 75.9175 297.401 79.0838 297.401 82.9896C297.401 86.8955 300.563 90.0618 304.464 90.0618Z" fill="#E2FCEE"/>
<path d="M314.7 107.959H354.127C355.569 107.959 356.722 106.804 356.722 105.361C356.722 103.918 355.569 102.763 354.127 102.763H314.7C313.258 102.763 312.105 103.918 312.105 105.361C312.105 106.804 313.258 107.959 314.7 107.959Z" fill="#F2F5F6"/>
<path d="M333.945 117.052H354.127C355.569 117.052 356.722 115.897 356.722 114.454C356.722 113.01 355.569 111.856 354.127 111.856H333.945C332.503 111.856 331.35 113.01 331.35 114.454C331.422 115.897 332.575 117.052 333.945 117.052Z" fill="#F2F5F6"/>
<path d="M368.543 116.98C372.444 116.98 375.607 113.813 375.607 109.907C375.607 106.002 372.444 102.835 368.543 102.835C364.642 102.835 361.479 106.002 361.479 109.907C361.479 113.813 364.642 116.98 368.543 116.98Z" fill="#E2FCEE"/>
<path d="M73.0888 243.34C72.1518 245.794 71.3589 248.753 71.0706 252.361C95.7218 252.361 120.373 252.361 145.024 252.361C145.096 252.433 145.096 252.433 145.168 252.505L144.448 249.33C142.574 240.814 136.879 233.67 129.023 229.917L106.75 219.237C103.29 219.959 80.2247 224.938 73.0888 243.34Z" fill="#3A66B0"/>
<path d="M117.418 215.845V231.505C117.418 231.505 118.571 241.247 112.3 240.309C106.101 239.443 99.47 222.268 99.47 222.268L100.479 207.041L117.418 215.845Z" fill="#F7B19A"/>
<path d="M123.905 175.505C127.293 177.309 129.239 181.062 129.816 184.814C130.392 188.567 129.743 192.464 128.879 196.144C128.662 197.299 128.302 198.526 127.293 199.175C125.923 200.113 124.049 199.32 122.824 198.165C120.013 195.567 119.076 191.381 119.652 187.557C120.229 183.732 122.103 180.268 124.265 177.093" fill="#35276D"/>
<path d="M124.731 219.121C132.632 214.813 134.053 202.157 127.904 190.851C121.755 179.546 110.366 173.873 102.465 178.18C94.5639 182.487 93.1435 195.144 99.2923 206.449C105.441 217.755 116.831 223.428 124.731 219.121Z" fill="#FCB59D"/>
<path d="M103.939 199.32L104.732 193.474C106.822 192.608 108.84 191.815 110.931 190.949C108.912 195.711 108.984 197.732 109.849 198.454C112.805 201.052 129.96 192.464 129.599 181.711C129.455 178.536 127.869 174.495 124.121 172.186C119.004 169.01 113.381 171.32 112.805 171.608C101.344 171.103 91.6854 176.371 88.658 184.309C88.1535 185.753 85.4145 193.402 90.0996 199.464C93.5595 203.866 98.8213 204.588 100.191 204.732C102.209 203.65 103.651 201.629 103.939 199.32Z" fill="#333238"/>
<path d="M100.503 210.893C102.522 209.857 102.731 206.228 100.97 202.788C99.208 199.347 96.143 197.398 94.1237 198.435C92.1045 199.471 91.8956 203.1 93.6572 206.541C95.4187 209.981 98.4837 211.93 100.503 210.893Z" fill="#FCB59D"/>
<path d="M117.85 198.237C118.355 198.165 119.004 198.887 119.364 200.041C119.652 201.124 119.436 202.134 118.932 202.278C118.427 202.351 117.778 201.629 117.418 200.474C117.057 199.32 117.346 198.309 117.85 198.237Z" fill="#333238"/>
<path d="M126.932 196.938C127.437 196.866 128.085 197.588 128.446 198.742C128.734 199.825 128.518 200.835 128.013 200.98C127.509 201.052 126.86 200.33 126.5 199.175C126.211 198.093 126.428 197.01 126.932 196.938Z" fill="#333238"/>
<path d="M123.689 208.845C125.058 208.701 126.284 207.907 126.716 207.33C127.076 206.897 127.004 206.536 126.932 206.32C126.86 206.103 126.644 205.887 126.139 205.815C125.274 205.742 124.193 203.289 123.689 201.629C123.617 201.412 123.328 201.268 123.112 201.34C122.896 201.412 122.752 201.629 122.824 201.918C123.04 202.711 124.265 206.536 126.067 206.753C126.067 206.753 126.067 206.753 126.139 206.753C125.923 207.186 124.482 208.268 122.968 208.052C122.752 208.052 122.463 208.196 122.463 208.412C122.463 208.629 122.608 208.918 122.824 208.918C123.112 208.845 123.4 208.845 123.689 208.845Z" fill="#333238"/>
<path d="M115.111 197.804C115.255 197.804 115.4 197.66 115.472 197.515C116.192 195.495 119.004 196.144 119.076 196.216C119.292 196.289 119.508 196.144 119.58 195.928C119.652 195.711 119.508 195.495 119.292 195.423C118.067 195.134 115.472 195.062 114.751 197.227C114.679 197.443 114.823 197.66 114.967 197.732C115.039 197.804 115.039 197.804 115.111 197.804Z" fill="#333238"/>
<path d="M124.121 195.062C124.265 195.062 124.337 194.99 124.409 194.845C124.482 194.773 125.419 193.186 128.086 193.835C128.302 193.907 128.518 193.763 128.59 193.546C128.662 193.33 128.518 193.113 128.302 193.041C124.914 192.175 123.761 194.34 123.689 194.412C123.617 194.629 123.689 194.845 123.833 194.99C123.977 195.062 124.049 195.062 124.121 195.062Z" fill="#333238"/>
<path d="M122.391 211.588C122.247 211.516 122.175 211.516 122.031 211.588C121.959 211.588 120.229 212.382 118.499 210.144C118.355 210 118.139 209.928 117.922 210.072C117.778 210.217 117.706 210.433 117.85 210.65C120.013 213.32 122.247 212.382 122.391 212.309C122.608 212.237 122.68 211.949 122.608 211.804C122.535 211.66 122.463 211.588 122.391 211.588Z" fill="#333238"/>
<path d="M100.119 81.5464C97.4517 87.9691 97.4517 95.5464 100.407 101.897C101.056 103.34 101.993 104.784 103.29 105.577C104.588 106.371 106.534 106.588 107.759 105.505C108.696 104.639 108.984 103.34 109.273 102.113C109.994 98.5052 110.714 94.8247 110.138 91.2165C109.561 87.6082 107.399 84 103.939 82.7732" fill="#333238"/>
<path d="M145.961 88.5464C145.529 90.7114 144.664 92.8763 143.15 94.4639C142.501 95.1856 141.636 95.7629 140.699 95.9794C139.762 96.1959 138.681 96.0516 137.96 95.4743C136.735 94.4639 136.663 92.5877 136.951 91.0722C137.312 88.7629 138.033 86.4536 139.546 84.6495C140.699 83.2784 143.366 80.9691 145.313 82.1237C147.115 83.0619 146.25 86.8145 145.961 88.5464Z" fill="#333238"/>
<path d="M104.732 118.278C104.732 118.278 112.588 138.845 120.085 139.928C127.509 140.938 126.211 129.32 126.211 129.32V121.526C126.716 121.526 127.221 121.454 127.797 121.381L126.211 120.66L113.597 114.598L112.588 115.031L104.732 118.278Z" fill="#3A66B0"/>
<path d="M104.732 118.278C104.732 118.278 112.588 138.845 120.085 139.928C127.509 140.938 126.211 129.32 126.211 129.32V110.557L117.994 106.299L106.822 100.526L105.957 100.093L105.813 102.619L105.669 104.206L104.732 118.278Z" fill="#F7B19A"/>
<path d="M105.741 95.9792C105.813 96.773 105.957 97.5668 106.029 98.3606C106.318 99.9482 106.678 101.536 107.11 102.979C107.183 103.34 107.327 103.701 107.471 103.989C108.84 108.175 110.931 111.783 113.381 114.67C116.985 118.855 121.454 121.381 126.067 121.598C126.572 121.598 127.076 121.598 127.581 121.598C127.941 121.598 128.374 121.526 128.734 121.453C138.825 119.794 145.096 106.66 142.646 92.2266C142.357 90.639 141.997 89.0513 141.565 87.5359C137.961 75.5565 128.951 67.5462 120.013 69.0617C112.3 70.3606 106.894 78.2266 105.813 88.3297C105.525 90.7833 105.453 93.3812 105.741 95.9792Z" fill="#FCB59D"/>
<path d="M147.907 83.0618C144.736 89.1958 132.194 90.2783 116.769 86.4535L113.742 92.5154C112.516 94.8968 110.282 96.5566 107.615 96.9175C107.615 96.9175 107.615 96.9175 107.543 96.9175C106.894 96.701 99.9024 93.8865 98.677 87.4639C97.6679 82.268 101.128 78.1546 103.074 75.8453C107.182 70.9381 113.165 67.6907 119.436 66.7525C122.607 66.2474 125.923 66.3917 129.023 67.3298C132.194 68.268 135.149 70.9381 138.609 70.5773C140.627 70.3608 142.718 68.9896 144.592 69.7113C145.313 69.9999 145.889 70.5051 146.25 71.1546C148.7 72.7422 149.926 79.237 147.907 83.0618Z" fill="#333238"/>
<path d="M99.9743 96.3401C100.623 100.742 103.146 103.99 105.741 103.629C108.336 103.268 109.849 99.4432 109.273 95.0411C108.624 90.6391 106.101 87.3916 103.506 87.7525C100.911 88.1133 99.3256 91.938 99.9743 96.3401Z" fill="#FCB59D"/>
<path d="M159.44 154.433L159.296 154.289H90.0275C90.0275 154.289 89.9554 154.289 89.8112 154.361H70.2056C70.0614 153.278 70.2056 151.907 70.7822 150.247C71.9355 146.567 73.7375 143.103 75.7557 140C81.45 131.268 89.7391 124.557 99.3978 120.588L104.804 118.351C104.804 118.351 112.66 138.918 120.157 140C127.581 141.01 126.284 129.392 126.284 129.392V121.598C126.788 121.598 127.293 121.526 127.869 121.454L140.267 127.371C149.637 131.845 156.413 140.433 158.719 150.608L159.584 154.361L159.44 154.433Z" fill="#00BE5B"/>
<path d="M128.59 95.835C129.167 95.9794 129.599 96.9175 129.527 98.2165C129.527 99.4433 128.95 100.381 128.374 100.381C127.797 100.237 127.365 99.2989 127.437 98C127.437 96.701 128.013 95.6907 128.59 95.835Z" fill="#333238"/>
<path d="M138.609 97.4226C139.186 97.567 139.618 98.5051 139.546 99.8041C139.546 101.031 138.97 101.969 138.393 101.969C137.816 101.825 137.384 100.887 137.456 99.5876C137.456 98.3608 138.032 97.2783 138.609 97.4226Z" fill="#333238"/>
<path d="M131.329 108.825C132.843 109.113 134.356 108.68 135.005 108.175C135.51 107.814 135.582 107.453 135.582 107.165C135.582 106.948 135.438 106.587 134.861 106.371C133.996 106.01 133.636 103.124 133.636 101.175C133.636 100.886 133.419 100.67 133.131 100.67C132.843 100.67 132.626 100.886 132.626 101.175C132.626 102.041 132.699 106.515 134.428 107.309C134.428 107.309 134.428 107.309 134.501 107.309C134.068 107.67 132.266 108.319 130.752 107.598C130.536 107.453 130.176 107.598 130.104 107.814C129.96 108.031 130.104 108.392 130.32 108.464C130.68 108.68 130.969 108.825 131.329 108.825Z" fill="#333238"/>
<path d="M129.167 112.361L123.689 108.608C123.616 108.608 122.031 115.319 129.167 112.361Z" fill="white"/>
<path d="M125.923 94.4638C126.067 94.4638 126.283 94.4638 126.356 94.3195C127.725 92.4432 130.464 94.0308 130.608 94.103C130.824 94.2473 131.113 94.1751 131.185 93.9586C131.329 93.7421 131.257 93.4535 131.041 93.3813C129.815 92.6597 127.148 91.7937 125.635 93.8143C125.491 94.0308 125.563 94.3195 125.707 94.4638C125.779 94.3916 125.851 94.3916 125.923 94.4638Z" fill="#333238"/>
<path d="M136.23 94.4638C136.375 94.4638 136.519 94.4638 136.591 94.3194C136.663 94.2473 138.177 92.8761 140.843 94.4638C141.06 94.6081 141.348 94.5359 141.42 94.3194C141.564 94.1029 141.492 93.8143 141.276 93.7421C138.032 91.7215 136.086 93.5978 136.014 93.6699C135.87 93.8143 135.87 94.1029 136.014 94.3194C136.086 94.4638 136.158 94.4638 136.23 94.4638Z" fill="#333238"/>
<path d="M257.541 114.093C257.829 116.979 256.676 119.938 254.946 122.175C252.135 125.928 247.81 128.237 243.341 128.742C238.944 129.319 234.475 128.309 230.655 125.928C228.565 124.629 226.619 122.897 224.745 121.165C222.582 119.216 220.42 117.268 218.329 115.175C215.662 112.577 213.644 109.691 211.41 106.732C209.752 104.567 206.869 104.711 205.355 102.185C204.274 100.454 204.058 98.0721 204.778 96.1236C205.571 94.0308 207.301 92.371 207.517 90.1339C207.806 87.3917 206.292 86.8143 206.22 83.6391C206.148 80.6803 207.517 77.2164 209.968 75.3401C210.833 74.6906 211.698 74.3298 212.635 74.1133C215.086 72.7422 217.753 71.9483 220.492 71.8762C223.735 71.804 227.051 72.7422 229.862 74.6185C231.088 73.969 232.241 73.2473 234.475 73.103C238.368 72.8865 243.197 74.6185 245.287 78.371C246.801 81.0411 245.792 82.1958 247.305 84.938C248.747 87.6803 251.846 88.6185 254.586 89.6288C257.325 90.6391 260.352 92.6597 260.496 95.7628C260.712 99.6597 256.604 102.258 256.099 106.082C255.883 108.825 257.325 111.423 257.541 114.093Z" fill="#333238"/>
<path d="M271.957 154.289H203.553C204.922 153.35 208.166 143.68 208.815 142.381C210.473 139.134 212.491 135.814 215.302 133.433C220.636 128.886 227.556 126.649 234.043 124.484C237.358 123.33 242.332 122.536 247.954 124.412C248.026 124.412 259.487 128.742 259.559 128.814C263.956 131.051 267.992 133.361 269.434 138.34C270.875 143.175 269.506 148.515 271.524 153.278C271.668 153.567 271.812 153.928 271.957 154.289Z" fill="#3A66B0"/>
<path d="M230.871 138.557H235.34C236.854 138.557 238.223 137.835 239.016 136.608C242.548 131.268 245.215 124.484 245.431 123.907V123.835L244.638 111.711L244.422 108.031V107.598L244.278 107.67L226.474 116.907V133.577C226.186 136.247 228.276 138.557 230.871 138.557Z" fill="#F7B19A"/>
<path d="M236.926 107.237C235.268 104.567 234.331 101.031 235.196 97.9277C235.412 97.2061 235.7 96.5566 235.989 95.8349C235.124 94.2473 234.763 92.4432 234.835 90.4947C234.98 88.402 235.628 86.3092 235.917 84.2164C232.457 81.7628 227.123 80.8246 222.654 82.3401C216.383 84.4329 213.932 90.6391 212.851 93.3092C208.887 103.412 210.256 119.866 219.915 123.691C228.997 127.299 240.818 118.206 244.35 111.495C241.611 111.639 238.944 110.484 236.926 107.237Z" fill="#FCB59D"/>
<path d="M244.856 106.901C246.342 103.032 245.739 99.2 243.509 98.3417C241.28 97.4835 238.268 99.9241 236.782 103.793C235.296 107.662 235.899 111.494 238.129 112.352C240.358 113.211 243.37 110.77 244.856 106.901Z" fill="#FCB59D"/>
<path d="M232.601 91.9381C231.664 92.1546 230.583 92.2267 229.862 91.6494C229.502 91.3607 229.285 90.9999 228.925 90.7834C228.204 90.2783 227.195 90.2783 226.402 90.6391C225.609 90.9999 224.961 91.5772 224.24 92.1546C222.51 93.5979 220.42 94.8968 218.185 95.1133C215.951 95.3298 213.428 94.103 212.707 91.9381C212.13 90.0618 212.995 88.1133 214.077 86.5257C217.032 82.1236 221.933 79.0205 227.195 78.5875C231.592 78.1546 237.647 79.67 240.314 83.4948C243.413 87.8247 235.989 91.2164 232.601 91.9381Z" fill="#333238"/>
<path d="M225.609 104.423C225.249 105.649 224.6 106.299 224.024 106.299C223.447 106.155 223.303 105.072 223.591 103.99C223.952 102.763 224.6 102.113 225.177 102.113C225.826 102.185 225.97 103.268 225.609 104.423Z" fill="#333238"/>
<path d="M216.239 102.907C215.879 104.134 215.23 104.783 214.653 104.783C214.077 104.639 213.933 103.556 214.221 102.474C214.581 101.247 215.23 100.598 215.807 100.598C216.383 100.67 216.599 101.824 216.239 102.907Z" fill="#333238"/>
<path d="M218.978 113.01C217.536 112.866 216.311 112 215.879 111.35C215.518 110.845 215.59 110.484 215.662 110.268C215.734 110.051 215.951 109.835 216.527 109.763C217.392 109.691 218.618 107.237 219.122 105.505C219.194 105.288 219.483 105.144 219.699 105.216C219.915 105.288 220.059 105.577 219.987 105.794C219.699 106.587 218.401 110.556 216.599 110.701C216.599 110.701 216.599 110.701 216.527 110.701C216.744 111.134 218.257 112.288 219.771 112.072C219.987 112.072 220.275 112.216 220.275 112.505C220.275 112.794 220.131 113.01 219.843 113.01C219.627 113.01 219.266 113.01 218.978 113.01Z" fill="#333238"/>
<path d="M219.915 116.69L225.898 114.958C225.898 115.031 225.321 121.526 219.915 116.69Z" fill="white"/>
<path d="M228.06 101.752C227.916 101.752 227.772 101.608 227.7 101.464C227.051 99.371 224.096 100.02 224.024 100.02C223.808 100.093 223.591 99.9483 223.519 99.7318C223.447 99.5153 223.591 99.2988 223.808 99.2267C225.105 98.938 227.772 98.938 228.493 101.175C228.565 101.392 228.421 101.608 228.204 101.68C228.204 101.752 228.132 101.752 228.06 101.752Z" fill="#333238"/>
<path d="M218.834 98.7214C218.69 98.7214 218.546 98.6493 218.546 98.5049C218.474 98.4328 217.537 96.773 214.725 97.4225C214.509 97.4946 214.293 97.3503 214.221 97.1338C214.149 96.9173 214.293 96.7008 214.509 96.6287C217.969 95.8348 219.194 98.072 219.266 98.1441C219.339 98.3606 219.266 98.5771 219.122 98.7214C218.978 98.7214 218.906 98.7214 218.834 98.7214Z" fill="#333238"/>
<path d="M263.163 190.155C263.163 190.083 263.091 190.01 263.091 189.938L263.163 190.155Z" fill="#2C285A"/>
<path d="M260.135 220.031C253.936 226.526 241.323 224.289 233.97 220.969C232.385 220.247 218.545 213.969 218.041 203.144C217.752 196.577 222.654 190.443 224.744 187.124C225.97 185.175 227.555 183.443 229.357 181.928C229.79 181.567 231.736 180.124 234.691 178.897C234.691 178.897 253.288 169.66 263.091 189.938C263.091 190.01 263.163 190.082 263.163 190.155C263.379 190.66 263.523 191.093 263.739 191.598C266.55 199.68 264.893 207.041 264.028 210.289C262.73 215.34 262.081 217.938 260.135 220.031Z" fill="#333238"/>
<path d="M275.993 252.361H204.922C205.787 250.773 206.652 249.258 207.517 247.814C208.166 246.804 208.743 245.866 209.319 245.072C213.067 239.66 216.239 236.485 218.113 234.825C221.573 231.65 225.177 229.34 228.42 227.536C232.096 225.588 235.412 224.361 238.007 223.567C240.89 222.845 245.143 222.34 250.044 223.567C250.116 223.567 250.188 223.567 250.188 223.567C262.947 226.67 269.217 238.866 270.371 241.175C272.317 244.495 274.191 248.247 275.993 252.361Z" fill="#00BE5B"/>
<path d="M231.015 217.144V232.155C231.015 232.155 229.934 241.464 235.917 240.598C241.899 239.732 248.17 223.278 248.17 223.278L247.161 208.701L231.015 217.144Z" fill="#F7B19A"/>
<path d="M250.765 211.371C250.621 217.794 233.898 226.887 225.393 221.114C218.257 216.278 218.113 204.083 225.033 193.907C228.204 189.217 232.817 184.021 235.34 185.031C237.646 185.969 236.133 190.876 239.088 196.938C241.178 201.34 244.566 204.155 247.089 205.887C249.251 207.474 250.837 209.351 250.765 211.371Z" fill="#FCB59D"/>
<path d="M257.757 209.423C255.738 212.526 252.639 214.113 250.837 212.959C249.035 211.804 249.179 208.268 251.197 205.165C253.216 202.062 256.315 200.474 258.117 201.629C259.919 202.784 259.775 206.247 257.757 209.423Z" fill="#FCB59D"/>
<path d="M259.991 233.886C260.424 233.814 260.712 233.381 260.928 233.165C261.361 232.515 261.577 231.722 261.649 230.928C261.793 229.268 261.721 227.608 261.289 225.948C261 224.649 260.496 222.629 259.27 221.835C258.045 221.113 256.675 221.979 255.955 223.062C255.594 223.567 255.522 224.072 255.522 224.361C255.162 227.825 258.189 234.247 259.991 233.886Z" fill="#333238"/>
<path d="M212.491 214.402C212.419 215.051 212.347 215.773 212.635 216.35C212.851 217 213.428 217.505 214.076 217.577C215.086 217.722 215.878 216.783 216.455 215.917C217.104 214.979 217.753 214.041 218.401 213.103C219.266 211.876 220.275 210.361 219.771 208.845C219.41 207.763 218.401 207.33 217.32 207.546C214.653 208.34 212.851 211.948 212.491 214.402Z" fill="#333238"/>
<path d="M236.782 203.216C236.133 204.227 235.34 204.732 234.835 204.588C234.403 204.299 234.403 203.289 234.98 202.35C235.628 201.34 236.421 200.835 236.926 200.979C237.43 201.196 237.43 202.206 236.782 203.216Z" fill="#333238"/>
<path d="M228.348 199.536C227.699 200.546 226.907 201.051 226.402 200.907C225.97 200.618 225.97 199.608 226.546 198.67C227.195 197.66 227.988 197.155 228.492 197.299C229.069 197.443 228.925 198.598 228.348 199.536Z" fill="#333238"/>
<path d="M228.492 209.639C227.195 209.134 226.258 208.051 225.97 207.33C225.753 206.825 225.898 206.464 226.042 206.32C226.186 206.175 226.474 205.959 226.979 206.031C227.844 206.175 229.502 204.155 230.439 202.639C230.583 202.423 230.871 202.35 231.087 202.495C231.304 202.639 231.376 202.928 231.231 203.144C230.799 203.794 228.565 207.185 226.835 206.897C226.835 206.897 226.835 206.897 226.763 206.897C226.907 207.402 227.988 208.773 229.502 208.99C229.718 208.99 229.934 209.278 229.862 209.495C229.862 209.711 229.574 209.928 229.357 209.856C229.069 209.783 228.781 209.711 228.492 209.639Z" fill="#333238"/>
<path d="M228.42 213.32L234.475 213.175C234.475 213.175 232.385 219.165 228.42 213.32Z" fill="white"/>
<path d="M239.737 201.268C239.593 201.196 239.521 201.051 239.449 200.907C239.304 198.742 236.421 198.67 236.349 198.67C236.133 198.67 235.989 198.454 235.989 198.237C235.989 198.021 236.205 197.876 236.421 197.876C237.719 197.876 240.169 198.598 240.314 200.835C240.314 201.051 240.169 201.268 239.953 201.268C239.809 201.268 239.737 201.268 239.737 201.268Z" fill="#333238"/>
<path d="M231.808 196.216C231.664 196.144 231.592 196.072 231.592 195.928C231.592 195.856 231.087 194.052 228.276 193.979C228.06 193.979 227.916 193.763 227.916 193.546C227.916 193.33 228.132 193.186 228.348 193.186C231.808 193.258 232.385 195.639 232.457 195.783C232.529 196 232.385 196.216 232.168 196.289C231.952 196.289 231.88 196.216 231.808 196.216Z" fill="#333238"/>
<path d="M406.674 19.3401H424.477V57.5153" stroke="#00BE5B" stroke-width="2" stroke-miterlimit="10" stroke-linecap="round" stroke-linejoin="round"/>
</g>
<defs>
<clipPath id="clip0_929:88">
<rect width="427" height="280" fill="white"/>
</clipPath>
</defs>
</svg>
