<svg width="60" height="60" viewBox="0 0 60 60" fill="none" xmlns="http://www.w3.org/2000/svg">
<rect width="60" height="60" rx="12" fill="white" fill-opacity="0.150514"/>
<rect x="0.25" y="0.25" width="59.5" height="59.5" rx="11.75" stroke="white" stroke-opacity="0.349405" stroke-width="0.5" stroke-linecap="round" stroke-linejoin="round"/>
<g filter="url(#filter0_d)">
<path fill-rule="evenodd" clip-rule="evenodd" d="M16 24C16 20.6863 18.6863 18 22 18H38C41.3137 18 44 20.6863 44 24V34C44 37.3137 41.3137 40 38 40H22C18.6863 40 16 37.3137 16 34V24ZM24 42C24 41.4477 24.4477 41 25 41H35C35.5523 41 36 41.4477 36 42C36 42.5523 35.5523 43 35 43H25C24.4477 43 24 42.5523 24 42ZM35.3652 22.574L39.1125 22.5774C39.3412 22.5772 39.5632 22.6636 39.7245 22.8233C39.8859 22.983 39.9732 23.2027 39.9731 23.4291L39.9775 27.1389C39.9706 27.372 39.8763 27.5985 39.7215 27.7518C39.5667 27.9052 39.3513 27.9986 39.1091 27.9988C38.6247 27.9992 38.2415 27.6199 38.2418 27.1404L38.2428 25.502L34.5539 29.1551C34.2173 29.4884 33.6657 29.4888 33.3295 29.1561C32.9933 28.8234 32.9936 28.2773 33.3302 27.944L37.0192 24.2909L35.3642 24.2924C34.8798 24.2928 34.4966 23.9135 34.4969 23.434C34.4972 22.9544 34.8809 22.5745 35.3652 22.574Z" fill="white"/>
</g>
<defs>
<filter id="filter0_d" x="12" y="16" width="40" height="37" filterUnits="userSpaceOnUse" color-interpolation-filters="sRGB">
<feFlood flood-opacity="0" result="BackgroundImageFix"/>
<feColorMatrix in="SourceAlpha" type="matrix" values="0 0 0 0 0 0 0 0 0 0 0 0 0 0 0 0 0 0 127 0" result="hardAlpha"/>
<feOffset dx="2" dy="4"/>
<feGaussianBlur stdDeviation="3"/>
<feColorMatrix type="matrix" values="0 0 0 0 0.0901961 0 0 0 0 0.501961 0 0 0 0 0.105882 0 0 0 0.495356 0"/>
<feBlend mode="normal" in2="BackgroundImageFix" result="effect1_dropShadow"/>
<feBlend mode="normal" in="SourceGraphic" in2="effect1_dropShadow" result="shape"/>
</filter>
</defs>
</svg>
